<mxfile host="Electron" modified="2022-02-09T17:09:32.559Z" agent="5.0 (X11; Linux x86_64) AppleWebKit/537.36 (KHTML, like Gecko) draw.io/16.0.0 Chrome/91.0.4472.164 Electron/13.6.3 Safari/537.36" etag="D-vIoz3PAkTYyi6tpXeF" compressed="false" version="16.0.0" type="device">
  <diagram id="OiNhETUFV-S9N2Nzilfd" name="Page-1">
    <mxGraphModel dx="868" dy="1415" grid="1" gridSize="10" guides="1" tooltips="1" connect="1" arrows="1" fold="1" page="1" pageScale="1" pageWidth="1100" pageHeight="850" background="none" math="0" shadow="0">
      <root>
        <mxCell id="0" />
        <mxCell id="1" parent="0" />
        <mxCell id="cg_5Q10Y65cVJ8_udtfW-69" value="16bit" style="edgeStyle=elbowEdgeStyle;rounded=1;sketch=0;jumpStyle=arc;orthogonalLoop=1;jettySize=auto;html=1;strokeColor=#000000;exitX=1;exitY=0.5;exitDx=0;exitDy=0;entryX=0;entryY=0.5;entryDx=0;entryDy=0;" parent="1" source="cg_5Q10Y65cVJ8_udtfW-66" target="5yY2fkMbjsQQD2zNWdAO-15" edge="1">
          <mxGeometry x="0.5455" relative="1" as="geometry">
            <mxPoint x="460" y="420" as="sourcePoint" />
            <mxPoint x="589" y="360" as="targetPoint" />
            <Array as="points">
              <mxPoint x="480" y="380" />
            </Array>
            <mxPoint as="offset" />
          </mxGeometry>
        </mxCell>
        <mxCell id="cg_5Q10Y65cVJ8_udtfW-141" style="edgeStyle=elbowEdgeStyle;rounded=1;sketch=0;jumpStyle=arc;orthogonalLoop=1;jettySize=auto;html=1;exitX=1;exitY=0.25;exitDx=0;exitDy=0;strokeColor=#000000;" parent="1" source="cg_5Q10Y65cVJ8_udtfW-68" edge="1">
          <mxGeometry relative="1" as="geometry">
            <mxPoint x="990" y="370" as="targetPoint" />
          </mxGeometry>
        </mxCell>
        <mxCell id="cg_5Q10Y65cVJ8_udtfW-68" value="&lt;font style=&quot;font-size: 22px&quot;&gt;Instruction-Memory&lt;br&gt;&lt;/font&gt;" style="rounded=0;whiteSpace=wrap;html=1;sketch=0;" parent="1" vertex="1">
          <mxGeometry x="650" y="160" width="280" height="470" as="geometry" />
        </mxCell>
        <mxCell id="cg_5Q10Y65cVJ8_udtfW-100" value="" style="group" parent="1" vertex="1" connectable="0">
          <mxGeometry x="2468" y="185" width="322.0000000000001" height="360" as="geometry" />
        </mxCell>
        <mxCell id="cg_5Q10Y65cVJ8_udtfW-84" value="" style="group" parent="cg_5Q10Y65cVJ8_udtfW-100" vertex="1" connectable="0">
          <mxGeometry x="125" y="25" width="176.36000000000013" height="300" as="geometry" />
        </mxCell>
        <mxCell id="cg_5Q10Y65cVJ8_udtfW-76" value="&lt;font style=&quot;font-size: 22px&quot;&gt;ALU&amp;nbsp;&amp;nbsp;&lt;/font&gt;" style="shape=stencil(tZXRjoIwEEW/pq+bQsPq6wb1PyqOS2NtSdvV3b93oGCs0I0IJISkc7mHIb1DCcttySsgKS0J25A0TSjFO66vT2tuKyicL164EXwvwSvWGX2Cqzi4liFUCUa4WmVbQr/wmfpieaGVQojQygbKg44wLhR66a+Hta//C1YV8s/gwLRNNtXd68yPbAFqskSnIbPre95OZ6KGvSaL7NQ81ORNJsuxEgsxy/e8OH0b/aMOfVdUO2oDA8JdFlL6AYt9YMXruesJnXzWF/h/moawnVsK9eC+/wxaP5sKWI0FPGWMTvOvx9qz0P+ZTfOzsf7Q/sL+FVLbaHKwHgkPHguDmWs8vcQ2VX+ONIUb);whiteSpace=wrap;html=1;rounded=0;sketch=0;align=right;" parent="cg_5Q10Y65cVJ8_udtfW-84" vertex="1">
          <mxGeometry width="136.36" height="300" as="geometry" />
        </mxCell>
        <mxCell id="cg_5Q10Y65cVJ8_udtfW-82" value="&lt;font style=&quot;font-size: 16px&quot;&gt;A&lt;/font&gt;" style="text;html=1;strokeColor=none;fillColor=none;align=center;verticalAlign=middle;whiteSpace=wrap;rounded=0;sketch=0;" parent="cg_5Q10Y65cVJ8_udtfW-84" vertex="1">
          <mxGeometry y="25" width="20" height="20" as="geometry" />
        </mxCell>
        <mxCell id="cg_5Q10Y65cVJ8_udtfW-83" value="&lt;font style=&quot;font-size: 16px&quot;&gt;B&lt;/font&gt;" style="text;html=1;strokeColor=none;fillColor=none;align=center;verticalAlign=middle;whiteSpace=wrap;rounded=0;sketch=0;" parent="cg_5Q10Y65cVJ8_udtfW-84" vertex="1">
          <mxGeometry y="256" width="20" height="20" as="geometry" />
        </mxCell>
        <mxCell id="5yY2fkMbjsQQD2zNWdAO-21" value="" style="endArrow=classic;html=1;strokeColor=#000000;jumpStyle=arc;exitX=0.389;exitY=0.113;exitDx=0;exitDy=0;exitPerimeter=0;" parent="cg_5Q10Y65cVJ8_udtfW-84" source="cg_5Q10Y65cVJ8_udtfW-76" edge="1">
          <mxGeometry width="50" height="50" relative="1" as="geometry">
            <mxPoint x="53.18" y="25" as="sourcePoint" />
            <mxPoint x="53" y="-30" as="targetPoint" />
          </mxGeometry>
        </mxCell>
        <mxCell id="cg_5Q10Y65cVJ8_udtfW-81" style="edgeStyle=elbowEdgeStyle;rounded=1;sketch=0;jumpStyle=arc;orthogonalLoop=1;jettySize=auto;html=1;entryX=-0.004;entryY=0.101;entryDx=0;entryDy=0;entryPerimeter=0;strokeColor=#000000;exitX=0.5;exitY=0;exitDx=0;exitDy=0;" parent="cg_5Q10Y65cVJ8_udtfW-100" source="3nAX13kZ5HZf5Nh2WH-0-4" target="cg_5Q10Y65cVJ8_udtfW-76" edge="1">
          <mxGeometry relative="1" as="geometry">
            <mxPoint x="50" y="60" as="sourcePoint" />
          </mxGeometry>
        </mxCell>
        <mxCell id="cg_5Q10Y65cVJ8_udtfW-94" value="" style="group" parent="cg_5Q10Y65cVJ8_udtfW-100" vertex="1" connectable="0">
          <mxGeometry x="7" y="220" width="50" height="140" as="geometry" />
        </mxCell>
        <mxCell id="cg_5Q10Y65cVJ8_udtfW-95" value="" style="shape=trapezoid;perimeter=trapezoidPerimeter;whiteSpace=wrap;html=1;fixedSize=1;rounded=0;sketch=0;size=30;rotation=90;" parent="cg_5Q10Y65cVJ8_udtfW-94" vertex="1">
          <mxGeometry x="-35" y="40.83333333333333" width="120" height="58.33333333333333" as="geometry" />
        </mxCell>
        <mxCell id="cg_5Q10Y65cVJ8_udtfW-96" value="0" style="text;html=1;strokeColor=none;fillColor=none;align=center;verticalAlign=middle;whiteSpace=wrap;rounded=0;sketch=0;" parent="cg_5Q10Y65cVJ8_udtfW-94" vertex="1">
          <mxGeometry x="-4" y="22.996666666666663" width="20" height="23.33333333333333" as="geometry" />
        </mxCell>
        <mxCell id="cg_5Q10Y65cVJ8_udtfW-97" value="1" style="text;html=1;strokeColor=none;fillColor=none;align=center;verticalAlign=middle;whiteSpace=wrap;rounded=0;sketch=0;" parent="cg_5Q10Y65cVJ8_udtfW-94" vertex="1">
          <mxGeometry x="-4" y="46.83" width="20" height="23.33333333333333" as="geometry" />
        </mxCell>
        <mxCell id="cg_5Q10Y65cVJ8_udtfW-98" value="2" style="text;html=1;strokeColor=none;fillColor=none;align=center;verticalAlign=middle;whiteSpace=wrap;rounded=0;sketch=0;" parent="cg_5Q10Y65cVJ8_udtfW-94" vertex="1">
          <mxGeometry x="-4" y="70.33333333333333" width="20" height="23.33333333333333" as="geometry" />
        </mxCell>
        <mxCell id="cg_5Q10Y65cVJ8_udtfW-99" value="3" style="text;html=1;strokeColor=none;fillColor=none;align=center;verticalAlign=middle;whiteSpace=wrap;rounded=0;sketch=0;" parent="cg_5Q10Y65cVJ8_udtfW-94" vertex="1">
          <mxGeometry x="-4" y="95.66666666666666" width="20" height="23.33333333333333" as="geometry" />
        </mxCell>
        <mxCell id="s_TZTwsTGNKsT-FFZbIs-53" value="&lt;span style=&quot;font-size: 20px&quot;&gt;alu_borrow&lt;/span&gt;" style="text;html=1;strokeColor=none;fillColor=none;align=center;verticalAlign=middle;whiteSpace=wrap;rounded=0;sketch=0;" parent="cg_5Q10Y65cVJ8_udtfW-100" vertex="1">
          <mxGeometry x="277.0000000000001" y="15" width="40" height="20" as="geometry" />
        </mxCell>
        <mxCell id="i8HT31GNC57bgd-hZuqh-34" value="&lt;div&gt;&lt;span style=&quot;font-size: 20px&quot;&gt;sel_alu_lhs&lt;/span&gt;&lt;/div&gt;" style="text;html=1;strokeColor=none;fillColor=none;align=center;verticalAlign=middle;whiteSpace=wrap;rounded=0;sketch=0;" parent="cg_5Q10Y65cVJ8_udtfW-100" vertex="1">
          <mxGeometry x="24" y="165" width="40" height="20" as="geometry" />
        </mxCell>
        <mxCell id="3nAX13kZ5HZf5Nh2WH-0-4" value="" style="shape=trapezoid;perimeter=trapezoidPerimeter;whiteSpace=wrap;html=1;fixedSize=1;rounded=0;sketch=0;size=30;rotation=90;" parent="cg_5Q10Y65cVJ8_udtfW-100" vertex="1">
          <mxGeometry x="-31.25" y="26.08" width="128.5" height="58.33" as="geometry" />
        </mxCell>
        <mxCell id="3nAX13kZ5HZf5Nh2WH-0-5" value="0" style="text;html=1;strokeColor=none;fillColor=none;align=center;verticalAlign=middle;whiteSpace=wrap;rounded=0;sketch=0;" parent="cg_5Q10Y65cVJ8_udtfW-100" vertex="1">
          <mxGeometry x="4" y="-2.0033333333333303" width="20" height="23.33333333333333" as="geometry" />
        </mxCell>
        <mxCell id="3nAX13kZ5HZf5Nh2WH-0-6" value="1" style="text;html=1;strokeColor=none;fillColor=none;align=center;verticalAlign=middle;whiteSpace=wrap;rounded=0;sketch=0;" parent="cg_5Q10Y65cVJ8_udtfW-100" vertex="1">
          <mxGeometry x="4" y="16.829999999999984" width="20" height="23.33333333333333" as="geometry" />
        </mxCell>
        <mxCell id="3nAX13kZ5HZf5Nh2WH-0-7" value="2" style="text;html=1;strokeColor=none;fillColor=none;align=center;verticalAlign=middle;whiteSpace=wrap;rounded=0;sketch=0;" parent="cg_5Q10Y65cVJ8_udtfW-100" vertex="1">
          <mxGeometry x="4" y="35.333333333333314" width="20" height="23.33333333333333" as="geometry" />
        </mxCell>
        <mxCell id="3nAX13kZ5HZf5Nh2WH-0-8" value="3" style="text;html=1;strokeColor=none;fillColor=none;align=center;verticalAlign=middle;whiteSpace=wrap;rounded=0;sketch=0;" parent="cg_5Q10Y65cVJ8_udtfW-100" vertex="1">
          <mxGeometry x="4" y="54.66666666666663" width="20" height="23.33333333333333" as="geometry" />
        </mxCell>
        <mxCell id="3nAX13kZ5HZf5Nh2WH-0-9" value="&lt;div&gt;4&lt;/div&gt;" style="text;html=1;strokeColor=none;fillColor=none;align=center;verticalAlign=middle;whiteSpace=wrap;rounded=0;sketch=0;" parent="cg_5Q10Y65cVJ8_udtfW-100" vertex="1">
          <mxGeometry x="4" y="73.16666666666663" width="20" height="23.33333333333333" as="geometry" />
        </mxCell>
        <mxCell id="3nAX13kZ5HZf5Nh2WH-0-10" style="edgeStyle=orthogonalEdgeStyle;rounded=0;jumpStyle=arc;orthogonalLoop=1;jettySize=auto;html=1;exitX=0.5;exitY=0;exitDx=0;exitDy=0;entryX=0.005;entryY=0.882;entryDx=0;entryDy=0;entryPerimeter=0;" parent="cg_5Q10Y65cVJ8_udtfW-100" source="cg_5Q10Y65cVJ8_udtfW-95" target="cg_5Q10Y65cVJ8_udtfW-76" edge="1">
          <mxGeometry relative="1" as="geometry">
            <mxPoint x="112" y="290.3333333333335" as="targetPoint" />
          </mxGeometry>
        </mxCell>
        <mxCell id="5yY2fkMbjsQQD2zNWdAO-104" style="edgeStyle=orthogonalEdgeStyle;rounded=0;jumpStyle=arc;orthogonalLoop=1;jettySize=auto;html=1;" parent="1" edge="1">
          <mxGeometry relative="1" as="geometry">
            <mxPoint x="1057" y="10" as="targetPoint" />
            <mxPoint x="987" y="370" as="sourcePoint" />
            <Array as="points">
              <mxPoint x="987" y="370" />
              <mxPoint x="1057" y="370" />
            </Array>
          </mxGeometry>
        </mxCell>
        <mxCell id="5yY2fkMbjsQQD2zNWdAO-15" value="&lt;font style=&quot;font-size: 18px&quot;&gt;lc&lt;br&gt;&lt;/font&gt;" style="text;html=1;strokeColor=none;fillColor=none;align=center;verticalAlign=middle;whiteSpace=wrap;rounded=0;sketch=0;" parent="1" vertex="1">
          <mxGeometry x="650" y="385" width="40" height="20" as="geometry" />
        </mxCell>
        <mxCell id="5yY2fkMbjsQQD2zNWdAO-16" value="&lt;font style=&quot;font-size: 18px&quot;&gt;out&lt;br&gt;&lt;/font&gt;" style="text;html=1;strokeColor=none;fillColor=none;align=center;verticalAlign=middle;whiteSpace=wrap;rounded=0;sketch=0;" parent="1" vertex="1">
          <mxGeometry x="890" y="265" width="40" height="20" as="geometry" />
        </mxCell>
        <mxCell id="5yY2fkMbjsQQD2zNWdAO-97" value="" style="group" parent="1" vertex="1" connectable="0">
          <mxGeometry x="232" y="350" width="40" height="96" as="geometry" />
        </mxCell>
        <mxCell id="5yY2fkMbjsQQD2zNWdAO-98" value="" style="shape=trapezoid;perimeter=trapezoidPerimeter;whiteSpace=wrap;html=1;fixedSize=1;rounded=0;sketch=0;size=30;rotation=90;" parent="5yY2fkMbjsQQD2zNWdAO-97" vertex="1">
          <mxGeometry x="-28" y="28" width="96" height="40" as="geometry" />
        </mxCell>
        <mxCell id="5yY2fkMbjsQQD2zNWdAO-99" value="0" style="text;html=1;strokeColor=none;fillColor=none;align=center;verticalAlign=middle;whiteSpace=wrap;rounded=0;sketch=0;" parent="5yY2fkMbjsQQD2zNWdAO-97" vertex="1">
          <mxGeometry x="1" y="12" width="16" height="16" as="geometry" />
        </mxCell>
        <mxCell id="5yY2fkMbjsQQD2zNWdAO-100" value="1" style="text;html=1;strokeColor=none;fillColor=none;align=center;verticalAlign=middle;whiteSpace=wrap;rounded=0;sketch=0;" parent="5yY2fkMbjsQQD2zNWdAO-97" vertex="1">
          <mxGeometry x="1" y="31" width="16" height="16" as="geometry" />
        </mxCell>
        <mxCell id="5yY2fkMbjsQQD2zNWdAO-101" value="2" style="text;html=1;strokeColor=none;fillColor=none;align=center;verticalAlign=middle;whiteSpace=wrap;rounded=0;sketch=0;" parent="5yY2fkMbjsQQD2zNWdAO-97" vertex="1">
          <mxGeometry x="1" y="50" width="16" height="16" as="geometry" />
        </mxCell>
        <mxCell id="5yY2fkMbjsQQD2zNWdAO-102" value="3" style="text;html=1;strokeColor=none;fillColor=none;align=center;verticalAlign=middle;whiteSpace=wrap;rounded=0;sketch=0;" parent="5yY2fkMbjsQQD2zNWdAO-97" vertex="1">
          <mxGeometry x="1" y="69" width="16" height="16" as="geometry" />
        </mxCell>
        <mxCell id="5yY2fkMbjsQQD2zNWdAO-103" style="edgeStyle=orthogonalEdgeStyle;rounded=0;orthogonalLoop=1;jettySize=auto;html=1;exitX=0.5;exitY=0;exitDx=0;exitDy=0;entryX=0.005;entryY=0.525;entryDx=0;entryDy=0;entryPerimeter=0;jumpStyle=arc;" parent="1" source="5yY2fkMbjsQQD2zNWdAO-98" target="cg_5Q10Y65cVJ8_udtfW-66" edge="1">
          <mxGeometry relative="1" as="geometry">
            <mxPoint x="352" y="398" as="sourcePoint" />
          </mxGeometry>
        </mxCell>
        <mxCell id="5yY2fkMbjsQQD2zNWdAO-105" value="&lt;font style=&quot;font-size: 20px&quot;&gt;Inst[15:13]&lt;/font&gt;" style="shape=link;html=1;entryX=0;entryY=0.5;entryDx=0;entryDy=0;" parent="1" target="5yY2fkMbjsQQD2zNWdAO-115" edge="1">
          <mxGeometry width="100" relative="1" as="geometry">
            <mxPoint x="1057" y="30" as="sourcePoint" />
            <mxPoint x="1217" y="40" as="targetPoint" />
          </mxGeometry>
        </mxCell>
        <mxCell id="5yY2fkMbjsQQD2zNWdAO-106" value="&lt;font style=&quot;font-size: 20px&quot;&gt;Inst[15:11]&lt;/font&gt;" style="shape=link;html=1;entryX=0;entryY=0.5;entryDx=0;entryDy=0;" parent="1" target="5yY2fkMbjsQQD2zNWdAO-116" edge="1">
          <mxGeometry width="100" relative="1" as="geometry">
            <mxPoint x="1057" y="60" as="sourcePoint" />
            <mxPoint x="1217" y="73" as="targetPoint" />
          </mxGeometry>
        </mxCell>
        <mxCell id="5yY2fkMbjsQQD2zNWdAO-108" value="&lt;font style=&quot;font-size: 20px&quot;&gt;Inst[12:9]&lt;/font&gt;" style="shape=link;html=1;entryX=0;entryY=0.5;entryDx=0;entryDy=0;" parent="1" target="5yY2fkMbjsQQD2zNWdAO-118" edge="1">
          <mxGeometry width="100" relative="1" as="geometry">
            <mxPoint x="1057" y="90" as="sourcePoint" />
            <mxPoint x="1217" y="110" as="targetPoint" />
          </mxGeometry>
        </mxCell>
        <mxCell id="5yY2fkMbjsQQD2zNWdAO-109" value="&lt;div&gt;&lt;font style=&quot;font-size: 20px&quot;&gt;Inst[15:9]&lt;/font&gt;&lt;/div&gt;" style="shape=link;html=1;entryX=0;entryY=0.5;entryDx=0;entryDy=0;" parent="1" target="5yY2fkMbjsQQD2zNWdAO-119" edge="1">
          <mxGeometry width="100" relative="1" as="geometry">
            <mxPoint x="1057" y="120" as="sourcePoint" />
            <mxPoint x="1217" y="139.99999999999997" as="targetPoint" />
          </mxGeometry>
        </mxCell>
        <mxCell id="5yY2fkMbjsQQD2zNWdAO-111" value="&lt;font style=&quot;font-size: 20px&quot;&gt;Inst[11:9]&lt;/font&gt;" style="shape=link;html=1;entryX=0;entryY=0.5;entryDx=0;entryDy=0;" parent="1" target="5yY2fkMbjsQQD2zNWdAO-121" edge="1">
          <mxGeometry width="100" relative="1" as="geometry">
            <mxPoint x="1057" y="180" as="sourcePoint" />
            <mxPoint x="1217" y="194.16999999999996" as="targetPoint" />
          </mxGeometry>
        </mxCell>
        <mxCell id="5yY2fkMbjsQQD2zNWdAO-112" value="&lt;div&gt;&lt;font style=&quot;font-size: 20px&quot;&gt;Inst[5:3]&lt;/font&gt;&lt;/div&gt;" style="shape=link;html=1;entryX=0;entryY=0.5;entryDx=0;entryDy=0;" parent="1" target="5yY2fkMbjsQQD2zNWdAO-122" edge="1">
          <mxGeometry width="100" relative="1" as="geometry">
            <mxPoint x="1057" y="210" as="sourcePoint" />
            <mxPoint x="1217" y="219.16999999999996" as="targetPoint" />
          </mxGeometry>
        </mxCell>
        <mxCell id="5yY2fkMbjsQQD2zNWdAO-113" value="&lt;font style=&quot;font-size: 20px&quot;&gt;Inst[2:0]&lt;/font&gt;" style="shape=link;html=1;entryX=0;entryY=0.5;entryDx=0;entryDy=0;" parent="1" target="5yY2fkMbjsQQD2zNWdAO-123" edge="1">
          <mxGeometry width="100" relative="1" as="geometry">
            <mxPoint x="1057" y="240" as="sourcePoint" />
            <mxPoint x="1217" y="244.99999999999994" as="targetPoint" />
          </mxGeometry>
        </mxCell>
        <mxCell id="5yY2fkMbjsQQD2zNWdAO-114" value="&lt;font style=&quot;font-size: 20px&quot;&gt;Inst[8:6]&lt;/font&gt;" style="shape=link;html=1;entryX=0;entryY=0.5;entryDx=0;entryDy=0;" parent="1" target="5yY2fkMbjsQQD2zNWdAO-124" edge="1">
          <mxGeometry width="100" relative="1" as="geometry">
            <mxPoint x="1057" y="330" as="sourcePoint" />
            <mxPoint x="1217" y="327.5799999999999" as="targetPoint" />
          </mxGeometry>
        </mxCell>
        <mxCell id="s_TZTwsTGNKsT-FFZbIs-84" style="edgeStyle=orthogonalEdgeStyle;rounded=0;jumpStyle=arc;orthogonalLoop=1;jettySize=auto;html=1;exitX=1;exitY=0.5;exitDx=0;exitDy=0;entryX=0.201;entryY=1.036;entryDx=0;entryDy=0;entryPerimeter=0;" parent="1" source="5yY2fkMbjsQQD2zNWdAO-115" target="5yY2fkMbjsQQD2zNWdAO-43" edge="1">
          <mxGeometry relative="1" as="geometry">
            <Array as="points">
              <mxPoint x="1530" y="30" />
              <mxPoint x="1530" y="551" />
              <mxPoint x="1657" y="551" />
            </Array>
            <mxPoint x="1530" y="550" as="targetPoint" />
          </mxGeometry>
        </mxCell>
        <mxCell id="3nAX13kZ5HZf5Nh2WH-0-2" style="edgeStyle=orthogonalEdgeStyle;rounded=0;orthogonalLoop=1;jettySize=auto;html=1;entryX=0;entryY=0.25;entryDx=0;entryDy=0;" parent="1" source="5yY2fkMbjsQQD2zNWdAO-115" target="cg_5Q10Y65cVJ8_udtfW-70" edge="1">
          <mxGeometry relative="1" as="geometry">
            <mxPoint x="1630" y="380" as="targetPoint" />
            <Array as="points">
              <mxPoint x="1530" y="30" />
              <mxPoint x="1530" y="268" />
              <mxPoint x="1718" y="268" />
            </Array>
          </mxGeometry>
        </mxCell>
        <mxCell id="5yY2fkMbjsQQD2zNWdAO-115" value="" style="whiteSpace=wrap;html=1;aspect=fixed;" parent="1" vertex="1">
          <mxGeometry x="1217" y="20" width="20" height="20" as="geometry" />
        </mxCell>
        <mxCell id="s_TZTwsTGNKsT-FFZbIs-138" style="edgeStyle=orthogonalEdgeStyle;rounded=0;jumpStyle=arc;orthogonalLoop=1;jettySize=auto;html=1;exitX=1;exitY=0.5;exitDx=0;exitDy=0;entryX=0;entryY=0.5;entryDx=0;entryDy=0;" parent="1" source="5yY2fkMbjsQQD2zNWdAO-116" target="s_TZTwsTGNKsT-FFZbIs-136" edge="1">
          <mxGeometry relative="1" as="geometry">
            <Array as="points">
              <mxPoint x="1380" y="60" />
              <mxPoint x="1380" y="-470" />
            </Array>
          </mxGeometry>
        </mxCell>
        <mxCell id="s_TZTwsTGNKsT-FFZbIs-283" style="edgeStyle=orthogonalEdgeStyle;rounded=0;jumpStyle=arc;orthogonalLoop=1;jettySize=auto;html=1;exitX=1;exitY=0.5;exitDx=0;exitDy=0;entryX=0;entryY=0.25;entryDx=0;entryDy=0;" parent="1" source="5yY2fkMbjsQQD2zNWdAO-116" target="PqLPkz7y5Um0poaI46qX-3" edge="1">
          <mxGeometry relative="1" as="geometry">
            <Array as="points">
              <mxPoint x="1380" y="60" />
              <mxPoint x="1380" y="1170" />
            </Array>
            <mxPoint x="1340" y="1254" as="targetPoint" />
          </mxGeometry>
        </mxCell>
        <mxCell id="s_TZTwsTGNKsT-FFZbIs-289" value="&lt;font style=&quot;font-size: 15px&quot;&gt;5bit&lt;/font&gt;" style="edgeLabel;html=1;align=center;verticalAlign=middle;resizable=0;points=[];" parent="s_TZTwsTGNKsT-FFZbIs-283" vertex="1" connectable="0">
          <mxGeometry x="0.9421" relative="1" as="geometry">
            <mxPoint x="-1" as="offset" />
          </mxGeometry>
        </mxCell>
        <mxCell id="5yY2fkMbjsQQD2zNWdAO-116" value="" style="whiteSpace=wrap;html=1;aspect=fixed;" parent="1" vertex="1">
          <mxGeometry x="1217" y="50" width="20" height="20" as="geometry" />
        </mxCell>
        <mxCell id="s_TZTwsTGNKsT-FFZbIs-39" style="edgeStyle=orthogonalEdgeStyle;rounded=0;jumpStyle=arc;orthogonalLoop=1;jettySize=auto;html=1;exitX=1;exitY=0.5;exitDx=0;exitDy=0;entryX=0;entryY=0.5;entryDx=0;entryDy=0;" parent="1" source="5yY2fkMbjsQQD2zNWdAO-118" target="s_TZTwsTGNKsT-FFZbIs-38" edge="1">
          <mxGeometry relative="1" as="geometry">
            <Array as="points">
              <mxPoint x="1740" y="90" />
              <mxPoint x="1740" y="-140" />
            </Array>
          </mxGeometry>
        </mxCell>
        <mxCell id="5yY2fkMbjsQQD2zNWdAO-118" value="" style="whiteSpace=wrap;html=1;aspect=fixed;" parent="1" vertex="1">
          <mxGeometry x="1217" y="80" width="20" height="20" as="geometry" />
        </mxCell>
        <mxCell id="s_TZTwsTGNKsT-FFZbIs-87" style="edgeStyle=orthogonalEdgeStyle;rounded=0;jumpStyle=arc;orthogonalLoop=1;jettySize=auto;html=1;exitX=1;exitY=0.5;exitDx=0;exitDy=0;entryX=0;entryY=0.5;entryDx=0;entryDy=0;" parent="1" source="5yY2fkMbjsQQD2zNWdAO-119" target="s_TZTwsTGNKsT-FFZbIs-86" edge="1">
          <mxGeometry relative="1" as="geometry">
            <Array as="points">
              <mxPoint x="1700" y="120" />
              <mxPoint x="1700" y="-211" />
            </Array>
          </mxGeometry>
        </mxCell>
        <mxCell id="5yY2fkMbjsQQD2zNWdAO-119" value="" style="whiteSpace=wrap;html=1;aspect=fixed;" parent="1" vertex="1">
          <mxGeometry x="1217" y="110" width="20" height="20" as="geometry" />
        </mxCell>
        <mxCell id="s_TZTwsTGNKsT-FFZbIs-303" style="edgeStyle=orthogonalEdgeStyle;rounded=0;jumpStyle=arc;orthogonalLoop=1;jettySize=auto;html=1;exitX=1;exitY=0.5;exitDx=0;exitDy=0;entryX=0.6;entryY=1.007;entryDx=0;entryDy=0;entryPerimeter=0;" parent="1" source="5yY2fkMbjsQQD2zNWdAO-121" target="5yY2fkMbjsQQD2zNWdAO-43" edge="1">
          <mxGeometry relative="1" as="geometry">
            <Array as="points">
              <mxPoint x="1350" y="180" />
              <mxPoint x="1350" y="590" />
            </Array>
            <mxPoint x="1610" y="590" as="targetPoint" />
          </mxGeometry>
        </mxCell>
        <mxCell id="5yY2fkMbjsQQD2zNWdAO-121" value="" style="whiteSpace=wrap;html=1;aspect=fixed;" parent="1" vertex="1">
          <mxGeometry x="1217" y="170" width="20" height="20" as="geometry" />
        </mxCell>
        <mxCell id="s_TZTwsTGNKsT-FFZbIs-22" style="edgeStyle=orthogonalEdgeStyle;rounded=0;jumpStyle=arc;orthogonalLoop=1;jettySize=auto;html=1;exitX=1;exitY=0.5;exitDx=0;exitDy=0;entryX=0;entryY=0.5;entryDx=0;entryDy=0;" parent="1" source="5yY2fkMbjsQQD2zNWdAO-122" target="cg_5Q10Y65cVJ8_udtfW-70" edge="1">
          <mxGeometry relative="1" as="geometry">
            <Array as="points">
              <mxPoint x="1470" y="210" />
              <mxPoint x="1470" y="385" />
            </Array>
            <mxPoint x="1657" y="251.77599999999984" as="targetPoint" />
          </mxGeometry>
        </mxCell>
        <mxCell id="s_TZTwsTGNKsT-FFZbIs-108" style="edgeStyle=orthogonalEdgeStyle;rounded=0;jumpStyle=arc;orthogonalLoop=1;jettySize=auto;html=1;exitX=1;exitY=0.5;exitDx=0;exitDy=0;entryX=0;entryY=0.5;entryDx=0;entryDy=0;" parent="1" source="5yY2fkMbjsQQD2zNWdAO-122" target="s_TZTwsTGNKsT-FFZbIs-107" edge="1">
          <mxGeometry relative="1" as="geometry">
            <Array as="points">
              <mxPoint x="1470" y="210" />
              <mxPoint x="1470" y="-550" />
              <mxPoint x="3000" y="-550" />
              <mxPoint x="3000" y="-181" />
            </Array>
          </mxGeometry>
        </mxCell>
        <mxCell id="s_TZTwsTGNKsT-FFZbIs-130" style="edgeStyle=orthogonalEdgeStyle;rounded=0;jumpStyle=arc;orthogonalLoop=1;jettySize=auto;html=1;exitX=1;exitY=0.5;exitDx=0;exitDy=0;entryX=0;entryY=0.5;entryDx=0;entryDy=0;" parent="1" source="5yY2fkMbjsQQD2zNWdAO-122" edge="1">
          <mxGeometry relative="1" as="geometry">
            <Array as="points">
              <mxPoint x="1470" y="210" />
              <mxPoint x="1470" y="-371" />
            </Array>
            <mxPoint x="1860" y="-371" as="targetPoint" />
          </mxGeometry>
        </mxCell>
        <mxCell id="5yY2fkMbjsQQD2zNWdAO-122" value="" style="whiteSpace=wrap;html=1;aspect=fixed;" parent="1" vertex="1">
          <mxGeometry x="1217" y="200" width="20" height="20" as="geometry" />
        </mxCell>
        <mxCell id="s_TZTwsTGNKsT-FFZbIs-114" style="edgeStyle=orthogonalEdgeStyle;rounded=0;jumpStyle=arc;orthogonalLoop=1;jettySize=auto;html=1;exitX=1;exitY=0.5;exitDx=0;exitDy=0;entryX=0.397;entryY=1.036;entryDx=0;entryDy=0;entryPerimeter=0;" parent="1" source="5yY2fkMbjsQQD2zNWdAO-123" target="5yY2fkMbjsQQD2zNWdAO-43" edge="1">
          <mxGeometry relative="1" as="geometry">
            <Array as="points">
              <mxPoint x="1500" y="240" />
              <mxPoint x="1500" y="570" />
            </Array>
            <mxPoint x="1650" y="572" as="targetPoint" />
          </mxGeometry>
        </mxCell>
        <mxCell id="i8HT31GNC57bgd-hZuqh-61" style="edgeStyle=orthogonalEdgeStyle;rounded=0;jumpStyle=arc;orthogonalLoop=1;jettySize=auto;html=1;exitX=1;exitY=0.5;exitDx=0;exitDy=0;entryX=1.005;entryY=0.177;entryDx=0;entryDy=0;entryPerimeter=0;" parent="1" source="5yY2fkMbjsQQD2zNWdAO-123" target="s_TZTwsTGNKsT-FFZbIs-395" edge="1">
          <mxGeometry relative="1" as="geometry">
            <Array as="points">
              <mxPoint x="1500" y="240" />
              <mxPoint x="1500" y="-20" />
            </Array>
          </mxGeometry>
        </mxCell>
        <mxCell id="i8HT31GNC57bgd-hZuqh-78" style="edgeStyle=orthogonalEdgeStyle;rounded=0;jumpStyle=arc;orthogonalLoop=1;jettySize=auto;html=1;exitX=1;exitY=0.5;exitDx=0;exitDy=0;entryX=0;entryY=0.5;entryDx=0;entryDy=0;" parent="1" source="5yY2fkMbjsQQD2zNWdAO-123" target="s_TZTwsTGNKsT-FFZbIs-386" edge="1">
          <mxGeometry relative="1" as="geometry">
            <Array as="points">
              <mxPoint x="1500" y="240" />
              <mxPoint x="1500" y="1091" />
            </Array>
          </mxGeometry>
        </mxCell>
        <mxCell id="i8HT31GNC57bgd-hZuqh-79" style="edgeStyle=orthogonalEdgeStyle;rounded=0;jumpStyle=arc;orthogonalLoop=1;jettySize=auto;html=1;exitX=1;exitY=0.5;exitDx=0;exitDy=0;entryX=0;entryY=0.5;entryDx=0;entryDy=0;" parent="1" source="5yY2fkMbjsQQD2zNWdAO-123" edge="1">
          <mxGeometry relative="1" as="geometry">
            <mxPoint x="2580" y="813" as="targetPoint" />
            <Array as="points">
              <mxPoint x="1500" y="240" />
              <mxPoint x="1500" y="711" />
              <mxPoint x="2460" y="711" />
              <mxPoint x="2460" y="813" />
            </Array>
          </mxGeometry>
        </mxCell>
        <mxCell id="3nAX13kZ5HZf5Nh2WH-0-1" style="edgeStyle=orthogonalEdgeStyle;rounded=0;orthogonalLoop=1;jettySize=auto;html=1;entryX=0;entryY=0.75;entryDx=0;entryDy=0;jumpStyle=arc;" parent="1" source="5yY2fkMbjsQQD2zNWdAO-123" target="cg_5Q10Y65cVJ8_udtfW-70" edge="1">
          <mxGeometry relative="1" as="geometry">
            <Array as="points">
              <mxPoint x="1500" y="240" />
              <mxPoint x="1500" y="503" />
            </Array>
          </mxGeometry>
        </mxCell>
        <mxCell id="5yY2fkMbjsQQD2zNWdAO-123" value="" style="whiteSpace=wrap;html=1;aspect=fixed;" parent="1" vertex="1">
          <mxGeometry x="1217" y="230" width="20" height="20" as="geometry" />
        </mxCell>
        <mxCell id="5yY2fkMbjsQQD2zNWdAO-142" style="edgeStyle=orthogonalEdgeStyle;rounded=0;jumpStyle=arc;orthogonalLoop=1;jettySize=auto;html=1;exitX=1;exitY=0.5;exitDx=0;exitDy=0;" parent="1" source="5yY2fkMbjsQQD2zNWdAO-124" edge="1">
          <mxGeometry relative="1" as="geometry">
            <mxPoint x="1120" y="480" as="targetPoint" />
            <Array as="points">
              <mxPoint x="1290" y="330" />
              <mxPoint x="1290" y="480" />
              <mxPoint x="1120" y="480" />
            </Array>
          </mxGeometry>
        </mxCell>
        <mxCell id="5yY2fkMbjsQQD2zNWdAO-124" value="" style="whiteSpace=wrap;html=1;aspect=fixed;" parent="1" vertex="1">
          <mxGeometry x="1217" y="320" width="20" height="20" as="geometry" />
        </mxCell>
        <mxCell id="5yY2fkMbjsQQD2zNWdAO-126" value="&lt;br&gt;&lt;font style=&quot;font-size: 20px&quot;&gt;OPC&lt;/font&gt;" style="text;html=1;strokeColor=none;fillColor=none;align=center;verticalAlign=middle;whiteSpace=wrap;rounded=0;" parent="1" vertex="1">
          <mxGeometry x="1060" y="466" width="40" height="20" as="geometry" />
        </mxCell>
        <mxCell id="5yY2fkMbjsQQD2zNWdAO-144" value="" style="endArrow=classic;html=1;strokeColor=#000000;entryX=0.25;entryY=0;entryDx=0;entryDy=0;jumpStyle=arc;" parent="1" edge="1">
          <mxGeometry width="50" height="50" relative="1" as="geometry">
            <mxPoint x="252" y="500" as="sourcePoint" />
            <mxPoint x="252" y="430" as="targetPoint" />
          </mxGeometry>
        </mxCell>
        <mxCell id="5yY2fkMbjsQQD2zNWdAO-145" value="&lt;span style=&quot;font-size: 20px&quot;&gt;sel_pc&lt;/span&gt;" style="text;html=1;strokeColor=none;fillColor=none;align=center;verticalAlign=middle;whiteSpace=wrap;rounded=0;sketch=0;" parent="1" vertex="1">
          <mxGeometry x="267" y="475" width="40" height="20" as="geometry" />
        </mxCell>
        <mxCell id="5yY2fkMbjsQQD2zNWdAO-218" value="" style="endArrow=classic;html=1;strokeColor=#000000;entryX=1;entryY=0.25;entryDx=0;entryDy=0;jumpStyle=arc;" parent="1" target="cg_5Q10Y65cVJ8_udtfW-95" edge="1">
          <mxGeometry width="50" height="50" relative="1" as="geometry">
            <mxPoint x="2510" y="570" as="sourcePoint" />
            <mxPoint x="2500" y="515" as="targetPoint" />
          </mxGeometry>
        </mxCell>
        <mxCell id="5yY2fkMbjsQQD2zNWdAO-219" value="&lt;div&gt;&lt;span style=&quot;font-size: 20px&quot;&gt;sel_alu_rhs&lt;/span&gt;&lt;/div&gt;" style="text;html=1;strokeColor=none;fillColor=none;align=center;verticalAlign=middle;whiteSpace=wrap;rounded=0;sketch=0;" parent="1" vertex="1">
          <mxGeometry x="2492" y="579" width="40" height="20" as="geometry" />
        </mxCell>
        <mxCell id="5yY2fkMbjsQQD2zNWdAO-239" value="&lt;div&gt;&lt;font style=&quot;font-size: 42px&quot;&gt;&lt;font style=&quot;font-size: 42px&quot;&gt;ZINQ Processor&lt;/font&gt;&lt;/font&gt;&lt;/div&gt;&lt;div&gt;&lt;font style=&quot;font-size: 42px&quot;&gt;&lt;font style=&quot;font-size: 42px&quot;&gt;Datapath&lt;/font&gt;&lt;br&gt;&lt;/font&gt;&lt;/div&gt;" style="text;html=1;strokeColor=none;fillColor=none;align=center;verticalAlign=middle;whiteSpace=wrap;rounded=0;" parent="1" vertex="1">
          <mxGeometry x="118.76" y="-560" width="311.24" height="110" as="geometry" />
        </mxCell>
        <mxCell id="edn_erhclxPrVHU06Qkv-1" value="&lt;font style=&quot;font-size: 20px&quot;&gt;Inst[12]&lt;/font&gt;" style="shape=link;html=1;entryX=0;entryY=0.5;entryDx=0;entryDy=0;" parent="1" target="edn_erhclxPrVHU06Qkv-3" edge="1">
          <mxGeometry width="100" relative="1" as="geometry">
            <mxPoint x="1057" y="360" as="sourcePoint" />
            <mxPoint x="1173.94" y="363.5799999999999" as="targetPoint" />
          </mxGeometry>
        </mxCell>
        <mxCell id="i8HT31GNC57bgd-hZuqh-50" style="edgeStyle=orthogonalEdgeStyle;rounded=0;orthogonalLoop=1;jettySize=auto;html=1;exitX=1;exitY=0.5;exitDx=0;exitDy=0;" parent="1" source="edn_erhclxPrVHU06Qkv-3" edge="1">
          <mxGeometry relative="1" as="geometry">
            <mxPoint x="1120" y="440" as="targetPoint" />
            <mxPoint x="1260" y="350" as="sourcePoint" />
            <Array as="points">
              <mxPoint x="1260" y="360" />
              <mxPoint x="1260" y="440" />
              <mxPoint x="1120" y="440" />
            </Array>
          </mxGeometry>
        </mxCell>
        <mxCell id="edn_erhclxPrVHU06Qkv-3" value="" style="whiteSpace=wrap;html=1;aspect=fixed;" parent="1" vertex="1">
          <mxGeometry x="1217" y="350" width="20" height="20" as="geometry" />
        </mxCell>
        <mxCell id="edn_erhclxPrVHU06Qkv-12" value="&lt;font style=&quot;font-size: 20px&quot;&gt;Inst[5:2]&lt;/font&gt;" style="shape=link;html=1;entryX=0;entryY=0.5;entryDx=0;entryDy=0;" parent="1" target="edn_erhclxPrVHU06Qkv-13" edge="1">
          <mxGeometry width="100" relative="1" as="geometry">
            <mxPoint x="1057" y="270" as="sourcePoint" />
            <mxPoint x="1217" y="265" as="targetPoint" />
          </mxGeometry>
        </mxCell>
        <mxCell id="s_TZTwsTGNKsT-FFZbIs-137" style="edgeStyle=orthogonalEdgeStyle;rounded=0;jumpStyle=arc;orthogonalLoop=1;jettySize=auto;html=1;exitX=1;exitY=0.5;exitDx=0;exitDy=0;entryX=0;entryY=0.5;entryDx=0;entryDy=0;" parent="1" source="edn_erhclxPrVHU06Qkv-13" target="s_TZTwsTGNKsT-FFZbIs-135" edge="1">
          <mxGeometry relative="1" as="geometry">
            <Array as="points">
              <mxPoint x="1440" y="270" />
              <mxPoint x="1440" y="-420" />
            </Array>
          </mxGeometry>
        </mxCell>
        <mxCell id="s_TZTwsTGNKsT-FFZbIs-284" style="edgeStyle=orthogonalEdgeStyle;rounded=0;jumpStyle=arc;orthogonalLoop=1;jettySize=auto;html=1;exitX=1;exitY=0.5;exitDx=0;exitDy=0;entryX=0;entryY=0.75;entryDx=0;entryDy=0;" parent="1" source="edn_erhclxPrVHU06Qkv-13" target="PqLPkz7y5Um0poaI46qX-3" edge="1">
          <mxGeometry relative="1" as="geometry">
            <Array as="points">
              <mxPoint x="1440" y="270" />
              <mxPoint x="1440" y="1209" />
            </Array>
            <mxPoint x="1141.95" y="809.0100000000002" as="targetPoint" />
          </mxGeometry>
        </mxCell>
        <mxCell id="s_TZTwsTGNKsT-FFZbIs-291" value="&lt;div&gt;&lt;font style=&quot;font-size: 15px&quot;&gt;4bit&lt;/font&gt;&lt;/div&gt;" style="edgeLabel;html=1;align=center;verticalAlign=middle;resizable=0;points=[];" parent="s_TZTwsTGNKsT-FFZbIs-284" vertex="1" connectable="0">
          <mxGeometry x="0.9396" y="-2" relative="1" as="geometry">
            <mxPoint x="-4" y="-2" as="offset" />
          </mxGeometry>
        </mxCell>
        <mxCell id="edn_erhclxPrVHU06Qkv-13" value="" style="whiteSpace=wrap;html=1;aspect=fixed;" parent="1" vertex="1">
          <mxGeometry x="1217" y="260" width="20" height="20" as="geometry" />
        </mxCell>
        <mxCell id="edn_erhclxPrVHU06Qkv-38" style="edgeStyle=orthogonalEdgeStyle;rounded=0;orthogonalLoop=1;jettySize=auto;html=1;exitX=0;exitY=0.5;exitDx=0;exitDy=0;entryX=1;entryY=0.25;entryDx=0;entryDy=0;" parent="1" edge="1">
          <mxGeometry relative="1" as="geometry">
            <mxPoint x="2580" y="642.5" as="sourcePoint" />
          </mxGeometry>
        </mxCell>
        <mxCell id="s_TZTwsTGNKsT-FFZbIs-1" value="&lt;font style=&quot;font-size: 20px&quot;&gt;Inst[10:9]&lt;/font&gt;" style="shape=link;html=1;entryX=0;entryY=0.5;entryDx=0;entryDy=0;" parent="1" target="s_TZTwsTGNKsT-FFZbIs-2" edge="1">
          <mxGeometry width="100" relative="1" as="geometry">
            <mxPoint x="1057" y="150" as="sourcePoint" />
            <mxPoint x="1217" y="166.17000000000007" as="targetPoint" />
          </mxGeometry>
        </mxCell>
        <mxCell id="i8HT31GNC57bgd-hZuqh-80" style="edgeStyle=orthogonalEdgeStyle;rounded=0;jumpStyle=arc;orthogonalLoop=1;jettySize=auto;html=1;exitX=1;exitY=0.5;exitDx=0;exitDy=0;entryX=0;entryY=0.25;entryDx=0;entryDy=0;" parent="1" source="s_TZTwsTGNKsT-FFZbIs-2" target="s_TZTwsTGNKsT-FFZbIs-143" edge="1">
          <mxGeometry relative="1" as="geometry">
            <mxPoint x="1360" y="1092" as="targetPoint" />
            <Array as="points">
              <mxPoint x="1410" y="150" />
              <mxPoint x="1410" y="800" />
              <mxPoint x="930" y="800" />
              <mxPoint x="930" y="917" />
            </Array>
          </mxGeometry>
        </mxCell>
        <mxCell id="s_TZTwsTGNKsT-FFZbIs-2" value="" style="whiteSpace=wrap;html=1;aspect=fixed;" parent="1" vertex="1">
          <mxGeometry x="1217" y="140" width="20" height="20" as="geometry" />
        </mxCell>
        <mxCell id="s_TZTwsTGNKsT-FFZbIs-13" value="" style="group" parent="1" vertex="1" connectable="0">
          <mxGeometry x="3060.84" y="51" width="280" height="550" as="geometry" />
        </mxCell>
        <mxCell id="s_TZTwsTGNKsT-FFZbIs-3" value="&lt;font style=&quot;font-size: 22px&quot;&gt;Memory Unit&lt;br&gt;&lt;/font&gt;" style="rounded=0;whiteSpace=wrap;html=1;sketch=0;" parent="s_TZTwsTGNKsT-FFZbIs-13" vertex="1">
          <mxGeometry y="80" width="280" height="470" as="geometry" />
        </mxCell>
        <mxCell id="s_TZTwsTGNKsT-FFZbIs-4" value="&lt;font style=&quot;font-size: 18px&quot;&gt;&lt;span&gt;we&lt;/span&gt;&lt;/font&gt;" style="text;html=1;strokeColor=none;fillColor=none;align=center;verticalAlign=middle;whiteSpace=wrap;rounded=0;sketch=0;" parent="s_TZTwsTGNKsT-FFZbIs-13" vertex="1">
          <mxGeometry x="163" y="86" width="40" height="20" as="geometry" />
        </mxCell>
        <mxCell id="s_TZTwsTGNKsT-FFZbIs-5" value="&lt;font style=&quot;font-size: 18px&quot;&gt;&lt;span&gt;rst&lt;/span&gt;&lt;/font&gt;" style="text;html=1;strokeColor=none;fillColor=none;align=center;verticalAlign=middle;whiteSpace=wrap;rounded=0;sketch=0;" parent="s_TZTwsTGNKsT-FFZbIs-13" vertex="1">
          <mxGeometry x="40" y="86" width="40" height="20" as="geometry" />
        </mxCell>
        <mxCell id="s_TZTwsTGNKsT-FFZbIs-6" value="" style="endArrow=classic;html=1;strokeColor=#000000;entryX=0.25;entryY=0;entryDx=0;entryDy=0;jumpStyle=arc;" parent="s_TZTwsTGNKsT-FFZbIs-13" edge="1">
          <mxGeometry width="50" height="50" relative="1" as="geometry">
            <mxPoint x="60" as="sourcePoint" />
            <mxPoint x="60" y="80" as="targetPoint" />
          </mxGeometry>
        </mxCell>
        <mxCell id="s_TZTwsTGNKsT-FFZbIs-7" value="" style="endArrow=classic;html=1;strokeColor=#000000;entryX=0.25;entryY=0;entryDx=0;entryDy=0;jumpStyle=arc;" parent="s_TZTwsTGNKsT-FFZbIs-13" edge="1">
          <mxGeometry width="50" height="50" relative="1" as="geometry">
            <mxPoint x="180" as="sourcePoint" />
            <mxPoint x="180" y="80" as="targetPoint" />
          </mxGeometry>
        </mxCell>
        <mxCell id="s_TZTwsTGNKsT-FFZbIs-8" value="&lt;font style=&quot;font-size: 20px&quot;&gt;rst&lt;/font&gt;" style="text;html=1;strokeColor=none;fillColor=none;align=center;verticalAlign=middle;whiteSpace=wrap;rounded=0;sketch=0;" parent="s_TZTwsTGNKsT-FFZbIs-13" vertex="1">
          <mxGeometry x="20" y="30" width="40" height="20" as="geometry" />
        </mxCell>
        <mxCell id="s_TZTwsTGNKsT-FFZbIs-9" value="&lt;span style=&quot;font-size: 20px&quot;&gt;we_mem&lt;/span&gt;" style="text;html=1;strokeColor=none;fillColor=none;align=center;verticalAlign=middle;whiteSpace=wrap;rounded=0;sketch=0;" parent="s_TZTwsTGNKsT-FFZbIs-13" vertex="1">
          <mxGeometry x="210" y="30" width="40" height="20" as="geometry" />
        </mxCell>
        <mxCell id="s_TZTwsTGNKsT-FFZbIs-10" value="&lt;font style=&quot;font-size: 18px&quot;&gt;data&lt;br&gt;&lt;/font&gt;" style="text;html=1;strokeColor=none;fillColor=none;align=center;verticalAlign=middle;whiteSpace=wrap;rounded=0;sketch=0;" parent="s_TZTwsTGNKsT-FFZbIs-13" vertex="1">
          <mxGeometry x="9" y="480" width="40" height="20" as="geometry" />
        </mxCell>
        <mxCell id="s_TZTwsTGNKsT-FFZbIs-11" value="&lt;font style=&quot;font-size: 18px&quot;&gt;addr&lt;/font&gt;" style="text;html=1;strokeColor=none;fillColor=none;align=center;verticalAlign=middle;whiteSpace=wrap;rounded=0;sketch=0;" parent="s_TZTwsTGNKsT-FFZbIs-13" vertex="1">
          <mxGeometry x="14" y="311" width="30" height="20" as="geometry" />
        </mxCell>
        <mxCell id="s_TZTwsTGNKsT-FFZbIs-12" value="&lt;font style=&quot;font-size: 18px&quot;&gt;out&lt;br&gt;&lt;/font&gt;" style="text;html=1;strokeColor=none;fillColor=none;align=center;verticalAlign=middle;whiteSpace=wrap;rounded=0;sketch=0;" parent="s_TZTwsTGNKsT-FFZbIs-13" vertex="1">
          <mxGeometry x="236" y="188" width="40" height="20" as="geometry" />
        </mxCell>
        <mxCell id="s_TZTwsTGNKsT-FFZbIs-15" value="" style="group" parent="1" vertex="1" connectable="0">
          <mxGeometry x="1658" y="70" width="300" height="710" as="geometry" />
        </mxCell>
        <mxCell id="cg_5Q10Y65cVJ8_udtfW-119" value="" style="group" parent="s_TZTwsTGNKsT-FFZbIs-15" vertex="1" connectable="0">
          <mxGeometry x="60" width="240" height="550" as="geometry" />
        </mxCell>
        <mxCell id="cg_5Q10Y65cVJ8_udtfW-70" value="&lt;div&gt;&lt;font style=&quot;font-size: 22px&quot;&gt;Register-File&lt;/font&gt;&lt;/div&gt;&lt;div&gt;&lt;font style=&quot;font-size: 22px&quot;&gt;(Main)&lt;br&gt;&lt;/font&gt;&lt;/div&gt;" style="rounded=0;whiteSpace=wrap;html=1;sketch=0;" parent="cg_5Q10Y65cVJ8_udtfW-119" vertex="1">
          <mxGeometry y="80" width="240" height="470" as="geometry" />
        </mxCell>
        <mxCell id="cg_5Q10Y65cVJ8_udtfW-107" value="&lt;font style=&quot;font-size: 18px&quot;&gt;R#1&lt;/font&gt;" style="text;html=1;strokeColor=none;fillColor=none;align=center;verticalAlign=middle;whiteSpace=wrap;rounded=0;sketch=0;" parent="cg_5Q10Y65cVJ8_udtfW-119" vertex="1">
          <mxGeometry y="188" width="50" height="20" as="geometry" />
        </mxCell>
        <mxCell id="cg_5Q10Y65cVJ8_udtfW-108" value="&lt;font style=&quot;font-size: 18px&quot;&gt;R#2&lt;/font&gt;" style="text;html=1;strokeColor=none;fillColor=none;align=center;verticalAlign=middle;whiteSpace=wrap;rounded=0;sketch=0;" parent="cg_5Q10Y65cVJ8_udtfW-119" vertex="1">
          <mxGeometry y="305" width="50" height="20" as="geometry" />
        </mxCell>
        <mxCell id="cg_5Q10Y65cVJ8_udtfW-109" value="&lt;font style=&quot;font-size: 18px&quot;&gt;R#3&lt;br&gt;&lt;/font&gt;" style="text;html=1;strokeColor=none;fillColor=none;align=center;verticalAlign=middle;whiteSpace=wrap;rounded=0;sketch=0;" parent="cg_5Q10Y65cVJ8_udtfW-119" vertex="1">
          <mxGeometry y="423" width="50" height="20" as="geometry" />
        </mxCell>
        <mxCell id="cg_5Q10Y65cVJ8_udtfW-110" value="&lt;font style=&quot;font-size: 18px&quot;&gt;WR&lt;br&gt;&lt;/font&gt;" style="text;html=1;strokeColor=none;fillColor=none;align=center;verticalAlign=middle;whiteSpace=wrap;rounded=0;sketch=0;" parent="cg_5Q10Y65cVJ8_udtfW-119" vertex="1">
          <mxGeometry y="500" width="40" height="20" as="geometry" />
        </mxCell>
        <mxCell id="cg_5Q10Y65cVJ8_udtfW-111" value="&lt;font style=&quot;font-size: 18px&quot;&gt;WD&lt;br&gt;&lt;/font&gt;" style="text;html=1;strokeColor=none;fillColor=none;align=center;verticalAlign=middle;whiteSpace=wrap;rounded=0;sketch=0;" parent="cg_5Q10Y65cVJ8_udtfW-119" vertex="1">
          <mxGeometry x="100" y="523" width="40" height="20" as="geometry" />
        </mxCell>
        <mxCell id="cg_5Q10Y65cVJ8_udtfW-112" value="" style="endArrow=classic;html=1;strokeColor=#000000;entryX=0.25;entryY=0;entryDx=0;entryDy=0;jumpStyle=arc;" parent="cg_5Q10Y65cVJ8_udtfW-119" target="cg_5Q10Y65cVJ8_udtfW-70" edge="1">
          <mxGeometry width="50" height="50" relative="1" as="geometry">
            <mxPoint x="60" as="sourcePoint" />
            <mxPoint x="-50" y="150" as="targetPoint" />
          </mxGeometry>
        </mxCell>
        <mxCell id="cg_5Q10Y65cVJ8_udtfW-113" value="" style="endArrow=classic;html=1;strokeColor=#000000;entryX=0.25;entryY=0;entryDx=0;entryDy=0;jumpStyle=arc;" parent="cg_5Q10Y65cVJ8_udtfW-119" edge="1">
          <mxGeometry width="50" height="50" relative="1" as="geometry">
            <mxPoint x="180" as="sourcePoint" />
            <mxPoint x="180" y="80" as="targetPoint" />
          </mxGeometry>
        </mxCell>
        <mxCell id="cg_5Q10Y65cVJ8_udtfW-115" value="&lt;font style=&quot;font-size: 20px&quot;&gt;rst&lt;/font&gt;" style="text;html=1;strokeColor=none;fillColor=none;align=center;verticalAlign=middle;whiteSpace=wrap;rounded=0;sketch=0;" parent="cg_5Q10Y65cVJ8_udtfW-119" vertex="1">
          <mxGeometry x="60" y="30" width="40" height="20" as="geometry" />
        </mxCell>
        <mxCell id="cg_5Q10Y65cVJ8_udtfW-116" value="&lt;span style=&quot;font-size: 20px&quot;&gt;we_mrf&lt;/span&gt;" style="text;html=1;strokeColor=none;fillColor=none;align=center;verticalAlign=middle;whiteSpace=wrap;rounded=0;sketch=0;" parent="cg_5Q10Y65cVJ8_udtfW-119" vertex="1">
          <mxGeometry x="200" y="30" width="40" height="20" as="geometry" />
        </mxCell>
        <mxCell id="cg_5Q10Y65cVJ8_udtfW-125" value="&lt;span style=&quot;font-size: 20px&quot;&gt;we&lt;/span&gt;" style="text;html=1;strokeColor=none;fillColor=none;align=center;verticalAlign=middle;whiteSpace=wrap;rounded=0;sketch=0;" parent="cg_5Q10Y65cVJ8_udtfW-119" vertex="1">
          <mxGeometry x="160" y="85" width="40" height="20" as="geometry" />
        </mxCell>
        <mxCell id="cg_5Q10Y65cVJ8_udtfW-126" value="&lt;span style=&quot;font-size: 20px&quot;&gt;rst&lt;/span&gt;" style="text;html=1;strokeColor=none;fillColor=none;align=center;verticalAlign=middle;whiteSpace=wrap;rounded=0;sketch=0;" parent="cg_5Q10Y65cVJ8_udtfW-119" vertex="1">
          <mxGeometry x="40" y="85" width="40" height="20" as="geometry" />
        </mxCell>
        <mxCell id="cg_5Q10Y65cVJ8_udtfW-133" value="&lt;font style=&quot;font-size: 18px&quot;&gt;O1&lt;/font&gt;" style="text;html=1;strokeColor=none;fillColor=none;align=center;verticalAlign=middle;whiteSpace=wrap;rounded=0;sketch=0;" parent="cg_5Q10Y65cVJ8_udtfW-119" vertex="1">
          <mxGeometry x="208" y="188" width="30" height="20" as="geometry" />
        </mxCell>
        <mxCell id="cg_5Q10Y65cVJ8_udtfW-134" value="&lt;font style=&quot;font-size: 18px&quot;&gt;O2&lt;/font&gt;" style="text;html=1;strokeColor=none;fillColor=none;align=center;verticalAlign=middle;whiteSpace=wrap;rounded=0;sketch=0;" parent="cg_5Q10Y65cVJ8_udtfW-119" vertex="1">
          <mxGeometry x="200" y="305" width="40" height="20" as="geometry" />
        </mxCell>
        <mxCell id="cg_5Q10Y65cVJ8_udtfW-135" value="&lt;font style=&quot;font-size: 18px&quot;&gt;O3&lt;br&gt;&lt;/font&gt;" style="text;html=1;strokeColor=none;fillColor=none;align=center;verticalAlign=middle;whiteSpace=wrap;rounded=0;sketch=0;" parent="cg_5Q10Y65cVJ8_udtfW-119" vertex="1">
          <mxGeometry x="200" y="423" width="40" height="20" as="geometry" />
        </mxCell>
        <mxCell id="5yY2fkMbjsQQD2zNWdAO-29" style="edgeStyle=orthogonalEdgeStyle;rounded=0;orthogonalLoop=1;jettySize=auto;html=1;exitX=0.5;exitY=0;exitDx=0;exitDy=0;entryX=0.5;entryY=1;entryDx=0;entryDy=0;jumpStyle=arc;" parent="s_TZTwsTGNKsT-FFZbIs-15" source="5yY2fkMbjsQQD2zNWdAO-24" target="cg_5Q10Y65cVJ8_udtfW-70" edge="1">
          <mxGeometry relative="1" as="geometry" />
        </mxCell>
        <mxCell id="5yY2fkMbjsQQD2zNWdAO-24" value="" style="shape=trapezoid;perimeter=trapezoidPerimeter;whiteSpace=wrap;html=1;fixedSize=1;rounded=0;sketch=0;size=30;rotation=0;" parent="s_TZTwsTGNKsT-FFZbIs-15" vertex="1">
          <mxGeometry x="95" y="660" width="170" height="50" as="geometry" />
        </mxCell>
        <mxCell id="5yY2fkMbjsQQD2zNWdAO-25" value="0" style="text;html=1;strokeColor=none;fillColor=none;align=center;verticalAlign=middle;whiteSpace=wrap;rounded=0;sketch=0;rotation=-90;" parent="s_TZTwsTGNKsT-FFZbIs-15" vertex="1">
          <mxGeometry x="110" y="690" width="20" height="20" as="geometry" />
        </mxCell>
        <mxCell id="5yY2fkMbjsQQD2zNWdAO-26" value="1" style="text;html=1;strokeColor=none;fillColor=none;align=center;verticalAlign=middle;whiteSpace=wrap;rounded=0;sketch=0;rotation=-90;" parent="s_TZTwsTGNKsT-FFZbIs-15" vertex="1">
          <mxGeometry x="130" y="690" width="20" height="20" as="geometry" />
        </mxCell>
        <mxCell id="5yY2fkMbjsQQD2zNWdAO-27" value="2" style="text;html=1;strokeColor=none;fillColor=none;align=center;verticalAlign=middle;whiteSpace=wrap;rounded=0;sketch=0;rotation=-90;" parent="s_TZTwsTGNKsT-FFZbIs-15" vertex="1">
          <mxGeometry x="150" y="690" width="20" height="20" as="geometry" />
        </mxCell>
        <mxCell id="5yY2fkMbjsQQD2zNWdAO-28" value="3" style="text;html=1;strokeColor=none;fillColor=none;align=center;verticalAlign=middle;whiteSpace=wrap;rounded=0;sketch=0;rotation=-90;" parent="s_TZTwsTGNKsT-FFZbIs-15" vertex="1">
          <mxGeometry x="170" y="690" width="20" height="20" as="geometry" />
        </mxCell>
        <mxCell id="5yY2fkMbjsQQD2zNWdAO-31" value="4" style="text;html=1;strokeColor=none;fillColor=none;align=center;verticalAlign=middle;whiteSpace=wrap;rounded=0;sketch=0;rotation=-90;" parent="s_TZTwsTGNKsT-FFZbIs-15" vertex="1">
          <mxGeometry x="190" y="690" width="20" height="20" as="geometry" />
        </mxCell>
        <mxCell id="5yY2fkMbjsQQD2zNWdAO-33" value="" style="endArrow=classic;html=1;entryX=0;entryY=0.5;entryDx=0;entryDy=0;jumpStyle=arc;" parent="s_TZTwsTGNKsT-FFZbIs-15" target="5yY2fkMbjsQQD2zNWdAO-24" edge="1">
          <mxGeometry width="50" height="50" relative="1" as="geometry">
            <mxPoint x="30" y="685" as="sourcePoint" />
            <mxPoint x="70" y="660" as="targetPoint" />
          </mxGeometry>
        </mxCell>
        <mxCell id="5yY2fkMbjsQQD2zNWdAO-42" value="" style="group" parent="s_TZTwsTGNKsT-FFZbIs-15" vertex="1" connectable="0">
          <mxGeometry y="462" width="40" height="96" as="geometry" />
        </mxCell>
        <mxCell id="5yY2fkMbjsQQD2zNWdAO-43" value="" style="shape=trapezoid;perimeter=trapezoidPerimeter;whiteSpace=wrap;html=1;fixedSize=1;rounded=0;sketch=0;size=30;rotation=90;" parent="5yY2fkMbjsQQD2zNWdAO-42" vertex="1">
          <mxGeometry x="-28" y="28" width="96" height="40" as="geometry" />
        </mxCell>
        <mxCell id="5yY2fkMbjsQQD2zNWdAO-44" value="0" style="text;html=1;strokeColor=none;fillColor=none;align=center;verticalAlign=middle;whiteSpace=wrap;rounded=0;sketch=0;" parent="5yY2fkMbjsQQD2zNWdAO-42" vertex="1">
          <mxGeometry y="12" width="16" height="16" as="geometry" />
        </mxCell>
        <mxCell id="5yY2fkMbjsQQD2zNWdAO-45" value="1" style="text;html=1;strokeColor=none;fillColor=none;align=center;verticalAlign=middle;whiteSpace=wrap;rounded=0;sketch=0;" parent="5yY2fkMbjsQQD2zNWdAO-42" vertex="1">
          <mxGeometry y="31" width="16" height="16" as="geometry" />
        </mxCell>
        <mxCell id="5yY2fkMbjsQQD2zNWdAO-46" value="2" style="text;html=1;strokeColor=none;fillColor=none;align=center;verticalAlign=middle;whiteSpace=wrap;rounded=0;sketch=0;" parent="5yY2fkMbjsQQD2zNWdAO-42" vertex="1">
          <mxGeometry y="50" width="16" height="16" as="geometry" />
        </mxCell>
        <mxCell id="5yY2fkMbjsQQD2zNWdAO-47" value="3" style="text;html=1;strokeColor=none;fillColor=none;align=center;verticalAlign=middle;whiteSpace=wrap;rounded=0;sketch=0;" parent="5yY2fkMbjsQQD2zNWdAO-42" vertex="1">
          <mxGeometry y="68" width="16" height="16" as="geometry" />
        </mxCell>
        <mxCell id="5yY2fkMbjsQQD2zNWdAO-49" style="edgeStyle=elbowEdgeStyle;rounded=0;orthogonalLoop=1;jettySize=auto;html=1;exitX=0.5;exitY=0;exitDx=0;exitDy=0;entryX=0;entryY=0.5;entryDx=0;entryDy=0;jumpStyle=arc;" parent="s_TZTwsTGNKsT-FFZbIs-15" source="5yY2fkMbjsQQD2zNWdAO-43" target="cg_5Q10Y65cVJ8_udtfW-110" edge="1">
          <mxGeometry relative="1" as="geometry">
            <mxPoint x="60" y="502.5" as="targetPoint" />
          </mxGeometry>
        </mxCell>
        <mxCell id="5yY2fkMbjsQQD2zNWdAO-222" value="" style="endArrow=classic;html=1;strokeColor=#000000;entryX=1;entryY=0.25;entryDx=0;entryDy=0;jumpStyle=arc;" parent="s_TZTwsTGNKsT-FFZbIs-15" target="5yY2fkMbjsQQD2zNWdAO-43" edge="1">
          <mxGeometry width="50" height="50" relative="1" as="geometry">
            <mxPoint x="26" y="592" as="sourcePoint" />
            <mxPoint x="12" y="552" as="targetPoint" />
          </mxGeometry>
        </mxCell>
        <mxCell id="s_TZTwsTGNKsT-FFZbIs-20" value="&lt;font style=&quot;font-size: 20px&quot;&gt;Inst[1:0]&lt;/font&gt;" style="shape=link;html=1;entryX=0;entryY=0.5;entryDx=0;entryDy=0;" parent="1" target="s_TZTwsTGNKsT-FFZbIs-21" edge="1">
          <mxGeometry width="100" relative="1" as="geometry">
            <mxPoint x="1057" y="300" as="sourcePoint" />
            <mxPoint x="1217" y="295" as="targetPoint" />
          </mxGeometry>
        </mxCell>
        <mxCell id="s_TZTwsTGNKsT-FFZbIs-298" style="edgeStyle=orthogonalEdgeStyle;rounded=0;jumpStyle=arc;orthogonalLoop=1;jettySize=auto;html=1;exitX=1;exitY=0.5;exitDx=0;exitDy=0;" parent="1" source="s_TZTwsTGNKsT-FFZbIs-21" edge="1">
          <mxGeometry relative="1" as="geometry">
            <mxPoint x="1120" y="520" as="targetPoint" />
            <Array as="points">
              <mxPoint x="1320" y="300" />
              <mxPoint x="1320" y="520" />
              <mxPoint x="1120" y="520" />
            </Array>
          </mxGeometry>
        </mxCell>
        <mxCell id="s_TZTwsTGNKsT-FFZbIs-21" value="" style="whiteSpace=wrap;html=1;aspect=fixed;" parent="1" vertex="1">
          <mxGeometry x="1217" y="290" width="20" height="20" as="geometry" />
        </mxCell>
        <mxCell id="s_TZTwsTGNKsT-FFZbIs-25" value="" style="group" parent="1" vertex="1" connectable="0">
          <mxGeometry x="380" y="250" width="130" height="210" as="geometry" />
        </mxCell>
        <mxCell id="cg_5Q10Y65cVJ8_udtfW-66" value="&lt;font style=&quot;font-size: 22px&quot;&gt;PC&lt;/font&gt;" style="rounded=0;whiteSpace=wrap;html=1;sketch=0;" parent="s_TZTwsTGNKsT-FFZbIs-25" vertex="1">
          <mxGeometry y="80" width="130" height="130" as="geometry" />
        </mxCell>
        <mxCell id="5yY2fkMbjsQQD2zNWdAO-234" value="" style="endArrow=classic;html=1;strokeColor=#000000;entryX=0.25;entryY=0;entryDx=0;entryDy=0;jumpStyle=arc;" parent="s_TZTwsTGNKsT-FFZbIs-25" edge="1">
          <mxGeometry width="50" height="50" relative="1" as="geometry">
            <mxPoint x="34.99999999999909" as="sourcePoint" />
            <mxPoint x="34.99999999999909" y="80" as="targetPoint" />
          </mxGeometry>
        </mxCell>
        <mxCell id="5yY2fkMbjsQQD2zNWdAO-235" value="" style="endArrow=classic;html=1;strokeColor=#000000;entryX=0.25;entryY=0;entryDx=0;entryDy=0;jumpStyle=arc;" parent="s_TZTwsTGNKsT-FFZbIs-25" edge="1">
          <mxGeometry width="50" height="50" relative="1" as="geometry">
            <mxPoint x="84.99999999999909" as="sourcePoint" />
            <mxPoint x="84.99999999999909" y="80" as="targetPoint" />
          </mxGeometry>
        </mxCell>
        <mxCell id="s_TZTwsTGNKsT-FFZbIs-24" value="&lt;font style=&quot;font-size: 20px&quot;&gt;1&lt;/font&gt;" style="edgeLabel;html=1;align=center;verticalAlign=middle;resizable=0;points=[];" parent="5yY2fkMbjsQQD2zNWdAO-235" vertex="1" connectable="0">
          <mxGeometry x="-0.25" relative="1" as="geometry">
            <mxPoint x="11" y="7" as="offset" />
          </mxGeometry>
        </mxCell>
        <mxCell id="5yY2fkMbjsQQD2zNWdAO-236" value="&lt;font style=&quot;font-size: 20px&quot;&gt;rst&lt;/font&gt;" style="text;html=1;strokeColor=none;fillColor=none;align=center;verticalAlign=middle;whiteSpace=wrap;rounded=0;sketch=0;" parent="s_TZTwsTGNKsT-FFZbIs-25" vertex="1">
          <mxGeometry x="-5" y="30" width="40" height="20" as="geometry" />
        </mxCell>
        <mxCell id="5yY2fkMbjsQQD2zNWdAO-237" value="&lt;font style=&quot;font-size: 18px&quot;&gt;&lt;span&gt;we_pc&lt;/span&gt;&lt;/font&gt;" style="text;html=1;strokeColor=none;fillColor=none;align=center;verticalAlign=middle;whiteSpace=wrap;rounded=0;sketch=0;" parent="s_TZTwsTGNKsT-FFZbIs-25" vertex="1">
          <mxGeometry x="64" y="83" width="40" height="20" as="geometry" />
        </mxCell>
        <mxCell id="s_TZTwsTGNKsT-FFZbIs-47" style="edgeStyle=orthogonalEdgeStyle;rounded=0;jumpStyle=arc;orthogonalLoop=1;jettySize=auto;html=1;exitX=1;exitY=0.5;exitDx=0;exitDy=0;entryX=0.011;entryY=0.884;entryDx=0;entryDy=0;entryPerimeter=0;" parent="1" source="s_TZTwsTGNKsT-FFZbIs-35" target="s_TZTwsTGNKsT-FFZbIs-41" edge="1">
          <mxGeometry relative="1" as="geometry" />
        </mxCell>
        <mxCell id="s_TZTwsTGNKsT-FFZbIs-35" value="&lt;font style=&quot;font-size: 20px&quot;&gt;&amp;lt;&amp;lt; 4&lt;br&gt;&lt;/font&gt;" style="rounded=1;whiteSpace=wrap;html=1;" parent="1" vertex="1">
          <mxGeometry x="2130" y="-90" width="70" height="40" as="geometry" />
        </mxCell>
        <mxCell id="s_TZTwsTGNKsT-FFZbIs-46" style="edgeStyle=orthogonalEdgeStyle;rounded=0;jumpStyle=arc;orthogonalLoop=1;jettySize=auto;html=1;exitX=1;exitY=0.5;exitDx=0;exitDy=0;entryX=-0.003;entryY=0.11;entryDx=0;entryDy=0;entryPerimeter=0;" parent="1" source="s_TZTwsTGNKsT-FFZbIs-38" target="s_TZTwsTGNKsT-FFZbIs-41" edge="1">
          <mxGeometry relative="1" as="geometry" />
        </mxCell>
        <mxCell id="s_TZTwsTGNKsT-FFZbIs-38" value="&lt;font style=&quot;font-size: 20px&quot;&gt;ZE&lt;/font&gt;" style="rounded=1;whiteSpace=wrap;html=1;" parent="1" vertex="1">
          <mxGeometry x="2130" y="-160" width="70" height="40" as="geometry" />
        </mxCell>
        <mxCell id="s_TZTwsTGNKsT-FFZbIs-40" value="" style="group" parent="1" vertex="1" connectable="0">
          <mxGeometry x="2240" y="-150" width="50" height="90" as="geometry" />
        </mxCell>
        <mxCell id="s_TZTwsTGNKsT-FFZbIs-41" value="&lt;font style=&quot;font-size: 18px&quot;&gt;+&amp;nbsp; &lt;br&gt;&lt;/font&gt;" style="shape=stencil(tZXRjoIwEEW/pq+bQsPq6wb1PyqOS2NtSdvV3b93oGCs0I0IJISkc7mHIb1DCcttySsgKS0J25A0TSjFO66vT2tuKyicL164EXwvwSvWGX2Cqzi4liFUCUa4WmVbQr/wmfpieaGVQojQygbKg44wLhR66a+Hta//C1YV8s/gwLRNNtXd68yPbAFqskSnIbPre95OZ6KGvSaL7NQ81ORNJsuxEgsxy/e8OH0b/aMOfVdUO2oDA8JdFlL6AYt9YMXruesJnXzWF/h/moawnVsK9eC+/wxaP5sKWI0FPGWMTvOvx9qz0P+ZTfOzsf7Q/sL+FVLbaHKwHgkPHguDmWs8vcQ2VX+ONIUb);whiteSpace=wrap;html=1;rounded=0;sketch=0;align=right;" parent="s_TZTwsTGNKsT-FFZbIs-40" vertex="1">
          <mxGeometry width="49.99999999999996" height="90" as="geometry" />
        </mxCell>
        <mxCell id="s_TZTwsTGNKsT-FFZbIs-49" style="edgeStyle=orthogonalEdgeStyle;rounded=0;jumpStyle=arc;orthogonalLoop=1;jettySize=auto;html=1;exitX=1;exitY=0.5;exitDx=0;exitDy=0;entryX=0;entryY=0.872;entryDx=0;entryDy=0;entryPerimeter=0;" parent="1" source="s_TZTwsTGNKsT-FFZbIs-41" target="s_TZTwsTGNKsT-FFZbIs-3" edge="1">
          <mxGeometry relative="1" as="geometry">
            <Array as="points">
              <mxPoint x="2880" y="-105" />
              <mxPoint x="2880" y="541" />
            </Array>
          </mxGeometry>
        </mxCell>
        <mxCell id="s_TZTwsTGNKsT-FFZbIs-59" style="edgeStyle=orthogonalEdgeStyle;rounded=0;jumpStyle=arc;orthogonalLoop=1;jettySize=auto;html=1;exitX=1;exitY=0.5;exitDx=0;exitDy=0;entryX=0.281;entryY=1.006;entryDx=0;entryDy=0;entryPerimeter=0;" parent="1" source="s_TZTwsTGNKsT-FFZbIs-50" target="3nAX13kZ5HZf5Nh2WH-0-4" edge="1">
          <mxGeometry relative="1" as="geometry">
            <Array as="points">
              <mxPoint x="2390" />
              <mxPoint x="2390" y="212" />
            </Array>
            <mxPoint x="2450" y="221" as="targetPoint" />
          </mxGeometry>
        </mxCell>
        <mxCell id="s_TZTwsTGNKsT-FFZbIs-50" value="&lt;font style=&quot;font-size: 20px&quot;&gt;SE&lt;/font&gt;" style="rounded=1;whiteSpace=wrap;html=1;" parent="1" vertex="1">
          <mxGeometry x="2130" y="-20" width="70" height="40" as="geometry" />
        </mxCell>
        <mxCell id="s_TZTwsTGNKsT-FFZbIs-51" style="edgeStyle=orthogonalEdgeStyle;rounded=0;jumpStyle=arc;orthogonalLoop=1;jettySize=auto;html=1;exitX=1;exitY=0.5;exitDx=0;exitDy=0;entryX=0;entryY=0.5;entryDx=0;entryDy=0;" parent="1" source="5yY2fkMbjsQQD2zNWdAO-118" target="s_TZTwsTGNKsT-FFZbIs-50" edge="1">
          <mxGeometry relative="1" as="geometry">
            <Array as="points">
              <mxPoint x="1740" y="90" />
              <mxPoint x="1740" />
            </Array>
          </mxGeometry>
        </mxCell>
        <mxCell id="s_TZTwsTGNKsT-FFZbIs-52" value="" style="endArrow=classic;html=1;strokeColor=#000000;jumpStyle=arc;exitX=0.829;exitY=0.254;exitDx=0;exitDy=0;exitPerimeter=0;" parent="1" source="cg_5Q10Y65cVJ8_udtfW-76" edge="1">
          <mxGeometry width="50" height="50" relative="1" as="geometry">
            <mxPoint x="2708" y="285" as="sourcePoint" />
            <mxPoint x="2706" y="180" as="targetPoint" />
          </mxGeometry>
        </mxCell>
        <mxCell id="s_TZTwsTGNKsT-FFZbIs-78" value="" style="group" parent="1" vertex="1" connectable="0">
          <mxGeometry x="1623.9950000000003" y="989.9950000000003" width="140.00499999999965" height="78.67999999999984" as="geometry" />
        </mxCell>
        <mxCell id="s_TZTwsTGNKsT-FFZbIs-67" value="" style="group" parent="s_TZTwsTGNKsT-FFZbIs-78" vertex="1" connectable="0">
          <mxGeometry width="39.17000000000007" height="78.67999999999984" as="geometry" />
        </mxCell>
        <mxCell id="s_TZTwsTGNKsT-FFZbIs-61" value="" style="shape=trapezoid;perimeter=trapezoidPerimeter;whiteSpace=wrap;html=1;fixedSize=1;rounded=0;sketch=0;size=20.239999999999327;rotation=-90;" parent="s_TZTwsTGNKsT-FFZbIs-67" vertex="1">
          <mxGeometry x="-19.75500000000011" y="19.754999999999654" width="78.68" height="39.17" as="geometry" />
        </mxCell>
        <mxCell id="s_TZTwsTGNKsT-FFZbIs-62" value="1" style="text;html=1;strokeColor=none;fillColor=none;align=center;verticalAlign=middle;whiteSpace=wrap;rounded=0;sketch=0;" parent="s_TZTwsTGNKsT-FFZbIs-67" vertex="1">
          <mxGeometry x="19.16499999999951" y="9.991666666666333" width="20" height="23.33333333333333" as="geometry" />
        </mxCell>
        <mxCell id="s_TZTwsTGNKsT-FFZbIs-64" value="0" style="text;html=1;strokeColor=none;fillColor=none;align=center;verticalAlign=middle;whiteSpace=wrap;rounded=0;sketch=0;" parent="s_TZTwsTGNKsT-FFZbIs-67" vertex="1">
          <mxGeometry x="19.16499999999951" y="38.32833333333292" width="20" height="23.33333333333333" as="geometry" />
        </mxCell>
        <mxCell id="s_TZTwsTGNKsT-FFZbIs-73" value="" style="endArrow=classic;html=1;entryX=1;entryY=0.5;entryDx=0;entryDy=0;" parent="s_TZTwsTGNKsT-FFZbIs-78" edge="1">
          <mxGeometry width="50" height="50" relative="1" as="geometry">
            <mxPoint x="80.00499999999965" y="51.004999999999654" as="sourcePoint" />
            <mxPoint x="39.164999999999054" y="50.994999999999436" as="targetPoint" />
          </mxGeometry>
        </mxCell>
        <mxCell id="s_TZTwsTGNKsT-FFZbIs-74" value="" style="endArrow=classic;html=1;entryX=1;entryY=0.5;entryDx=0;entryDy=0;" parent="s_TZTwsTGNKsT-FFZbIs-78" target="s_TZTwsTGNKsT-FFZbIs-62" edge="1">
          <mxGeometry width="50" height="50" relative="1" as="geometry">
            <mxPoint x="80.00499999999965" y="22.004999999999654" as="sourcePoint" />
            <mxPoint x="49.164999999999054" y="60.994999999999436" as="targetPoint" />
          </mxGeometry>
        </mxCell>
        <mxCell id="s_TZTwsTGNKsT-FFZbIs-83" style="edgeStyle=orthogonalEdgeStyle;rounded=0;jumpStyle=arc;orthogonalLoop=1;jettySize=auto;html=1;exitX=0.5;exitY=0;exitDx=0;exitDy=0;entryX=0;entryY=0.5;entryDx=0;entryDy=0;" parent="1" source="s_TZTwsTGNKsT-FFZbIs-61" target="5yY2fkMbjsQQD2zNWdAO-25" edge="1">
          <mxGeometry relative="1" as="geometry" />
        </mxCell>
        <mxCell id="s_TZTwsTGNKsT-FFZbIs-89" style="edgeStyle=orthogonalEdgeStyle;rounded=0;jumpStyle=arc;orthogonalLoop=1;jettySize=auto;html=1;exitX=1;exitY=0.5;exitDx=0;exitDy=0;entryX=0;entryY=0.5;entryDx=0;entryDy=0;" parent="1" source="s_TZTwsTGNKsT-FFZbIs-85" target="s_TZTwsTGNKsT-FFZbIs-88" edge="1">
          <mxGeometry relative="1" as="geometry" />
        </mxCell>
        <mxCell id="s_TZTwsTGNKsT-FFZbIs-85" value="&lt;font style=&quot;font-size: 20px&quot;&gt;A &amp;amp; 0x0000&lt;/font&gt;" style="rounded=1;whiteSpace=wrap;html=1;" parent="1" vertex="1">
          <mxGeometry x="1750" y="-236" width="180" height="50" as="geometry" />
        </mxCell>
        <mxCell id="s_TZTwsTGNKsT-FFZbIs-86" value="&lt;font style=&quot;font-size: 14px&quot;&gt;A&lt;/font&gt;" style="text;html=1;strokeColor=none;fillColor=none;align=center;verticalAlign=middle;whiteSpace=wrap;rounded=0;" parent="1" vertex="1">
          <mxGeometry x="1751" y="-221" width="20" height="20" as="geometry" />
        </mxCell>
        <mxCell id="s_TZTwsTGNKsT-FFZbIs-105" style="edgeStyle=orthogonalEdgeStyle;rounded=0;jumpStyle=arc;orthogonalLoop=1;jettySize=auto;html=1;exitX=1;exitY=0.5;exitDx=0;exitDy=0;entryX=0;entryY=0.5;entryDx=0;entryDy=0;" parent="1" source="s_TZTwsTGNKsT-FFZbIs-88" target="s_TZTwsTGNKsT-FFZbIs-100" edge="1">
          <mxGeometry relative="1" as="geometry">
            <Array as="points">
              <mxPoint x="2920" y="-211" />
              <mxPoint x="2920" y="389" />
            </Array>
          </mxGeometry>
        </mxCell>
        <mxCell id="s_TZTwsTGNKsT-FFZbIs-88" value="&lt;font style=&quot;font-size: 20px&quot;&gt;SE&lt;/font&gt;" style="rounded=1;whiteSpace=wrap;html=1;" parent="1" vertex="1">
          <mxGeometry x="2130" y="-231" width="70" height="40" as="geometry" />
        </mxCell>
        <mxCell id="s_TZTwsTGNKsT-FFZbIs-101" value="" style="group" parent="1" vertex="1" connectable="0">
          <mxGeometry x="3000" y="336.99499999999983" width="39.76500000000078" height="78.67999999999984" as="geometry" />
        </mxCell>
        <mxCell id="s_TZTwsTGNKsT-FFZbIs-98" value="" style="shape=trapezoid;perimeter=trapezoidPerimeter;whiteSpace=wrap;html=1;fixedSize=1;rounded=0;sketch=0;size=20.239999999999327;rotation=90;" parent="s_TZTwsTGNKsT-FFZbIs-101" vertex="1">
          <mxGeometry x="-20.1599999999994" y="15.755000000000166" width="78.68" height="39.17" as="geometry" />
        </mxCell>
        <mxCell id="s_TZTwsTGNKsT-FFZbIs-99" value="0" style="text;html=1;strokeColor=none;fillColor=none;align=center;verticalAlign=middle;whiteSpace=wrap;rounded=0;sketch=0;" parent="s_TZTwsTGNKsT-FFZbIs-101" vertex="1">
          <mxGeometry y="11.741666666666845" width="20" height="23.33333333333333" as="geometry" />
        </mxCell>
        <mxCell id="s_TZTwsTGNKsT-FFZbIs-100" value="1" style="text;html=1;strokeColor=none;fillColor=none;align=center;verticalAlign=middle;whiteSpace=wrap;rounded=0;sketch=0;" parent="s_TZTwsTGNKsT-FFZbIs-101" vertex="1">
          <mxGeometry y="40.07833333333343" width="20" height="23.33333333333333" as="geometry" />
        </mxCell>
        <mxCell id="s_TZTwsTGNKsT-FFZbIs-103" value="" style="endArrow=classic;html=1;strokeColor=#000000;entryX=1;entryY=0;entryDx=0;entryDy=0;jumpStyle=arc;" parent="1" target="s_TZTwsTGNKsT-FFZbIs-98" edge="1">
          <mxGeometry width="50" height="50" relative="1" as="geometry">
            <mxPoint x="3030.84" y="450" as="sourcePoint" />
            <mxPoint x="3020.84" y="400" as="targetPoint" />
          </mxGeometry>
        </mxCell>
        <mxCell id="s_TZTwsTGNKsT-FFZbIs-104" value="&lt;span style=&quot;font-size: 20px&quot;&gt;sel_mem_addr&lt;/span&gt;" style="text;html=1;strokeColor=none;fillColor=none;align=center;verticalAlign=middle;whiteSpace=wrap;rounded=0;sketch=0;" parent="1" vertex="1">
          <mxGeometry x="2920" y="426" width="80" height="20" as="geometry" />
        </mxCell>
        <mxCell id="s_TZTwsTGNKsT-FFZbIs-112" style="edgeStyle=orthogonalEdgeStyle;rounded=0;jumpStyle=arc;orthogonalLoop=1;jettySize=auto;html=1;exitX=1;exitY=0.5;exitDx=0;exitDy=0;entryX=0;entryY=0.5;entryDx=0;entryDy=0;" parent="1" source="s_TZTwsTGNKsT-FFZbIs-106" target="s_TZTwsTGNKsT-FFZbIs-110" edge="1">
          <mxGeometry relative="1" as="geometry">
            <Array as="points">
              <mxPoint x="3400" y="-180" />
              <mxPoint x="3400" y="-21" />
            </Array>
          </mxGeometry>
        </mxCell>
        <mxCell id="s_TZTwsTGNKsT-FFZbIs-106" value="&lt;font style=&quot;font-size: 20px&quot;&gt;4 ^ A&lt;br&gt;&lt;/font&gt;" style="rounded=1;whiteSpace=wrap;html=1;" parent="1" vertex="1">
          <mxGeometry x="3135.84" y="-201" width="130" height="41" as="geometry" />
        </mxCell>
        <mxCell id="s_TZTwsTGNKsT-FFZbIs-107" value="&lt;font style=&quot;font-size: 14px&quot;&gt;A&lt;/font&gt;" style="text;html=1;strokeColor=none;fillColor=none;align=center;verticalAlign=middle;whiteSpace=wrap;rounded=0;" parent="1" vertex="1">
          <mxGeometry x="3135.84" y="-191" width="20" height="20" as="geometry" />
        </mxCell>
        <mxCell id="s_TZTwsTGNKsT-FFZbIs-115" style="edgeStyle=orthogonalEdgeStyle;rounded=0;jumpStyle=arc;orthogonalLoop=1;jettySize=auto;html=1;exitX=1;exitY=0.5;exitDx=0;exitDy=0;entryX=0;entryY=0.5;entryDx=0;entryDy=0;" parent="1" source="s_TZTwsTGNKsT-FFZbIs-109" target="5yY2fkMbjsQQD2zNWdAO-26" edge="1">
          <mxGeometry relative="1" as="geometry">
            <mxPoint x="1810" y="840" as="targetPoint" />
            <Array as="points">
              <mxPoint x="3520" y="15" />
              <mxPoint x="3520" y="1050" />
              <mxPoint x="1798" y="1050" />
            </Array>
          </mxGeometry>
        </mxCell>
        <mxCell id="s_TZTwsTGNKsT-FFZbIs-113" style="edgeStyle=orthogonalEdgeStyle;rounded=0;jumpStyle=arc;orthogonalLoop=1;jettySize=auto;html=1;exitX=1;exitY=0.25;exitDx=0;exitDy=0;entryX=0;entryY=0.5;entryDx=0;entryDy=0;" parent="1" source="s_TZTwsTGNKsT-FFZbIs-3" target="s_TZTwsTGNKsT-FFZbIs-111" edge="1">
          <mxGeometry relative="1" as="geometry">
            <Array as="points">
              <mxPoint x="3400" y="248" />
              <mxPoint x="3400" y="55" />
            </Array>
          </mxGeometry>
        </mxCell>
        <mxCell id="s_TZTwsTGNKsT-FFZbIs-116" value="" style="group" parent="1" vertex="1" connectable="0">
          <mxGeometry x="3430" y="-50" width="60" height="130" as="geometry" />
        </mxCell>
        <mxCell id="s_TZTwsTGNKsT-FFZbIs-109" value="&lt;font style=&quot;font-size: 20px&quot;&gt;&amp;lt;&amp;lt;&lt;/font&gt;" style="rounded=1;whiteSpace=wrap;html=1;" parent="s_TZTwsTGNKsT-FFZbIs-116" vertex="1">
          <mxGeometry width="60" height="130" as="geometry" />
        </mxCell>
        <mxCell id="s_TZTwsTGNKsT-FFZbIs-110" value="&lt;font style=&quot;font-size: 14px&quot;&gt;B&lt;/font&gt;" style="text;html=1;strokeColor=none;fillColor=none;align=center;verticalAlign=middle;whiteSpace=wrap;rounded=0;" parent="s_TZTwsTGNKsT-FFZbIs-116" vertex="1">
          <mxGeometry y="19" width="30" height="20" as="geometry" />
        </mxCell>
        <mxCell id="s_TZTwsTGNKsT-FFZbIs-111" value="&lt;font style=&quot;font-size: 14px&quot;&gt;A&lt;/font&gt;" style="text;html=1;strokeColor=none;fillColor=none;align=center;verticalAlign=middle;whiteSpace=wrap;rounded=0;" parent="s_TZTwsTGNKsT-FFZbIs-116" vertex="1">
          <mxGeometry y="95" width="30" height="20" as="geometry" />
        </mxCell>
        <mxCell id="s_TZTwsTGNKsT-FFZbIs-129" style="edgeStyle=orthogonalEdgeStyle;rounded=0;jumpStyle=arc;orthogonalLoop=1;jettySize=auto;html=1;exitX=1;exitY=0.5;exitDx=0;exitDy=0;entryX=0;entryY=0.75;entryDx=0;entryDy=0;" parent="1" source="s_TZTwsTGNKsT-FFZbIs-123" edge="1">
          <mxGeometry relative="1" as="geometry">
            <mxPoint x="1860" y="-290.0000000000001" as="targetPoint" />
          </mxGeometry>
        </mxCell>
        <mxCell id="s_TZTwsTGNKsT-FFZbIs-123" value="&lt;font style=&quot;font-size: 20px&quot;&gt;SE&lt;/font&gt;" style="rounded=1;whiteSpace=wrap;html=1;" parent="1" vertex="1">
          <mxGeometry x="1750" y="-310" width="70" height="40" as="geometry" />
        </mxCell>
        <mxCell id="s_TZTwsTGNKsT-FFZbIs-124" style="edgeStyle=orthogonalEdgeStyle;rounded=0;jumpStyle=arc;orthogonalLoop=1;jettySize=auto;html=1;exitX=1;exitY=0.5;exitDx=0;exitDy=0;entryX=0;entryY=0.5;entryDx=0;entryDy=0;" parent="1" source="5yY2fkMbjsQQD2zNWdAO-119" target="s_TZTwsTGNKsT-FFZbIs-123" edge="1">
          <mxGeometry relative="1" as="geometry">
            <Array as="points">
              <mxPoint x="1700" y="120" />
              <mxPoint x="1700" y="-290" />
            </Array>
          </mxGeometry>
        </mxCell>
        <mxCell id="s_TZTwsTGNKsT-FFZbIs-125" value="" style="group" parent="1" vertex="1" connectable="0">
          <mxGeometry x="1860" y="-400" width="60" height="130" as="geometry" />
        </mxCell>
        <mxCell id="s_TZTwsTGNKsT-FFZbIs-126" value="&lt;font style=&quot;font-size: 20px&quot;&gt;&amp;lt;&amp;lt;&lt;/font&gt;" style="rounded=1;whiteSpace=wrap;html=1;" parent="s_TZTwsTGNKsT-FFZbIs-125" vertex="1">
          <mxGeometry width="60" height="130" as="geometry" />
        </mxCell>
        <mxCell id="s_TZTwsTGNKsT-FFZbIs-134" style="edgeStyle=orthogonalEdgeStyle;rounded=0;jumpStyle=arc;orthogonalLoop=1;jettySize=auto;html=1;exitX=1;exitY=0.5;exitDx=0;exitDy=0;entryX=0;entryY=0.5;entryDx=0;entryDy=0;" parent="1" source="s_TZTwsTGNKsT-FFZbIs-131" target="5yY2fkMbjsQQD2zNWdAO-27" edge="1">
          <mxGeometry relative="1" as="geometry">
            <Array as="points">
              <mxPoint x="2330" y="-335" />
              <mxPoint x="2330" y="1020" />
              <mxPoint x="1818" y="1020" />
            </Array>
          </mxGeometry>
        </mxCell>
        <mxCell id="s_TZTwsTGNKsT-FFZbIs-131" value="&lt;font style=&quot;font-size: 20px&quot;&gt;A[15:8] &amp;amp; 0x00&lt;/font&gt;" style="rounded=1;whiteSpace=wrap;html=1;" parent="1" vertex="1">
          <mxGeometry x="1950" y="-360" width="210" height="50" as="geometry" />
        </mxCell>
        <mxCell id="s_TZTwsTGNKsT-FFZbIs-132" style="edgeStyle=orthogonalEdgeStyle;rounded=0;jumpStyle=arc;orthogonalLoop=1;jettySize=auto;html=1;exitX=1;exitY=0.5;exitDx=0;exitDy=0;entryX=0;entryY=0.5;entryDx=0;entryDy=0;" parent="1" source="s_TZTwsTGNKsT-FFZbIs-126" target="s_TZTwsTGNKsT-FFZbIs-131" edge="1">
          <mxGeometry relative="1" as="geometry">
            <mxPoint x="1920" y="-360" as="sourcePoint" />
          </mxGeometry>
        </mxCell>
        <mxCell id="s_TZTwsTGNKsT-FFZbIs-133" value="&lt;font style=&quot;font-size: 14px&quot;&gt;A&lt;/font&gt;" style="text;html=1;strokeColor=none;fillColor=none;align=center;verticalAlign=middle;whiteSpace=wrap;rounded=0;" parent="1" vertex="1">
          <mxGeometry x="1950" y="-345" width="20" height="20" as="geometry" />
        </mxCell>
        <mxCell id="s_TZTwsTGNKsT-FFZbIs-139" style="edgeStyle=orthogonalEdgeStyle;rounded=0;jumpStyle=arc;orthogonalLoop=1;jettySize=auto;html=1;exitX=1;exitY=0.5;exitDx=0;exitDy=0;entryX=0.137;entryY=1.021;entryDx=0;entryDy=0;entryPerimeter=0;" parent="1" source="s_TZTwsTGNKsT-FFZbIs-135" target="3nAX13kZ5HZf5Nh2WH-0-4" edge="1">
          <mxGeometry relative="1" as="geometry">
            <Array as="points">
              <mxPoint x="2450" y="-420" />
              <mxPoint x="2450" y="194" />
              <mxPoint x="2471" y="194" />
            </Array>
            <mxPoint x="2410" y="474.2857142857143" as="targetPoint" />
          </mxGeometry>
        </mxCell>
        <mxCell id="s_TZTwsTGNKsT-FFZbIs-135" value="&lt;font style=&quot;font-size: 20px&quot;&gt;SE&lt;/font&gt;" style="rounded=1;whiteSpace=wrap;html=1;" parent="1" vertex="1">
          <mxGeometry x="1750" y="-440" width="70" height="40" as="geometry" />
        </mxCell>
        <mxCell id="s_TZTwsTGNKsT-FFZbIs-140" style="edgeStyle=orthogonalEdgeStyle;rounded=0;jumpStyle=arc;orthogonalLoop=1;jettySize=auto;html=1;exitX=1;exitY=0.5;exitDx=0;exitDy=0;entryX=0.398;entryY=1.025;entryDx=0;entryDy=0;entryPerimeter=0;" parent="1" source="s_TZTwsTGNKsT-FFZbIs-136" target="cg_5Q10Y65cVJ8_udtfW-95" edge="1">
          <mxGeometry relative="1" as="geometry">
            <mxPoint x="2440" y="420" as="targetPoint" />
            <Array as="points">
              <mxPoint x="2420" y="-470" />
              <mxPoint x="2420" y="463" />
              <mxPoint x="2469" y="463" />
            </Array>
          </mxGeometry>
        </mxCell>
        <mxCell id="s_TZTwsTGNKsT-FFZbIs-136" value="&lt;font style=&quot;font-size: 20px&quot;&gt;SE&lt;/font&gt;" style="rounded=1;whiteSpace=wrap;html=1;" parent="1" vertex="1">
          <mxGeometry x="1750" y="-490" width="70" height="40" as="geometry" />
        </mxCell>
        <mxCell id="s_TZTwsTGNKsT-FFZbIs-142" value="" style="group" parent="1" vertex="1" connectable="0">
          <mxGeometry x="976.9999999999999" y="820" width="240" height="270" as="geometry" />
        </mxCell>
        <mxCell id="s_TZTwsTGNKsT-FFZbIs-143" value="&lt;div&gt;&lt;font style=&quot;font-size: 22px&quot;&gt;4 RF&lt;/font&gt;&lt;/div&gt;&lt;div&gt;&lt;font style=&quot;font-size: 22px&quot;&gt;(Bank)&lt;br&gt;&lt;/font&gt;&lt;/div&gt;" style="rounded=0;whiteSpace=wrap;html=1;sketch=0;" parent="s_TZTwsTGNKsT-FFZbIs-142" vertex="1">
          <mxGeometry y="39.272727272727266" width="240" height="230.7272727272727" as="geometry" />
        </mxCell>
        <mxCell id="s_TZTwsTGNKsT-FFZbIs-144" value="&lt;font style=&quot;font-size: 18px&quot;&gt;R#1&lt;/font&gt;" style="text;html=1;strokeColor=none;fillColor=none;align=center;verticalAlign=middle;whiteSpace=wrap;rounded=0;sketch=0;" parent="s_TZTwsTGNKsT-FFZbIs-142" vertex="1">
          <mxGeometry x="7" y="91.92266007905138" width="40" height="9.818181818181817" as="geometry" />
        </mxCell>
        <mxCell id="s_TZTwsTGNKsT-FFZbIs-147" value="&lt;font style=&quot;font-size: 18px&quot;&gt;WR&lt;br&gt;&lt;/font&gt;" style="text;html=1;strokeColor=none;fillColor=none;align=center;verticalAlign=middle;whiteSpace=wrap;rounded=0;sketch=0;" parent="s_TZTwsTGNKsT-FFZbIs-142" vertex="1">
          <mxGeometry x="7" y="208.18181818181813" width="40" height="9.818181818181817" as="geometry" />
        </mxCell>
        <mxCell id="s_TZTwsTGNKsT-FFZbIs-148" value="&lt;font style=&quot;font-size: 18px&quot;&gt;WD&lt;br&gt;&lt;/font&gt;" style="text;html=1;strokeColor=none;fillColor=none;align=center;verticalAlign=middle;whiteSpace=wrap;rounded=0;sketch=0;" parent="s_TZTwsTGNKsT-FFZbIs-142" vertex="1">
          <mxGeometry x="100" y="250.27272727272722" width="40" height="9.818181818181817" as="geometry" />
        </mxCell>
        <mxCell id="s_TZTwsTGNKsT-FFZbIs-149" value="" style="endArrow=classic;html=1;strokeColor=#000000;entryX=0.25;entryY=0;entryDx=0;entryDy=0;jumpStyle=arc;" parent="s_TZTwsTGNKsT-FFZbIs-142" edge="1">
          <mxGeometry width="50" height="50" relative="1" as="geometry">
            <mxPoint x="70" as="sourcePoint" />
            <mxPoint x="70" y="39.272727272727025" as="targetPoint" />
          </mxGeometry>
        </mxCell>
        <mxCell id="s_TZTwsTGNKsT-FFZbIs-150" value="" style="endArrow=classic;html=1;strokeColor=#000000;entryX=0.25;entryY=0;entryDx=0;entryDy=0;jumpStyle=arc;" parent="s_TZTwsTGNKsT-FFZbIs-142" edge="1">
          <mxGeometry width="50" height="50" relative="1" as="geometry">
            <mxPoint x="155" as="sourcePoint" />
            <mxPoint x="155" y="39.272727272727266" as="targetPoint" />
          </mxGeometry>
        </mxCell>
        <mxCell id="s_TZTwsTGNKsT-FFZbIs-151" value="&lt;font style=&quot;font-size: 20px&quot;&gt;rst&lt;/font&gt;" style="text;html=1;strokeColor=none;fillColor=none;align=center;verticalAlign=middle;whiteSpace=wrap;rounded=0;sketch=0;" parent="s_TZTwsTGNKsT-FFZbIs-142" vertex="1">
          <mxGeometry x="30" y="14.727272727272725" width="40" height="9.818181818181817" as="geometry" />
        </mxCell>
        <mxCell id="s_TZTwsTGNKsT-FFZbIs-152" value="&lt;div&gt;&lt;span style=&quot;font-size: 20px&quot;&gt;we_bank&lt;/span&gt;&lt;/div&gt;" style="text;html=1;strokeColor=none;fillColor=none;align=center;verticalAlign=middle;whiteSpace=wrap;rounded=0;sketch=0;" parent="s_TZTwsTGNKsT-FFZbIs-142" vertex="1">
          <mxGeometry x="185" y="14.727272727272725" width="40" height="9.818181818181817" as="geometry" />
        </mxCell>
        <mxCell id="s_TZTwsTGNKsT-FFZbIs-153" value="&lt;font style=&quot;font-size: 18px&quot;&gt;&lt;span&gt;we&lt;/span&gt;&lt;/font&gt;" style="text;html=1;strokeColor=none;fillColor=none;align=center;verticalAlign=middle;whiteSpace=wrap;rounded=0;sketch=0;" parent="s_TZTwsTGNKsT-FFZbIs-142" vertex="1">
          <mxGeometry x="136" y="47" width="40" height="18" as="geometry" />
        </mxCell>
        <mxCell id="s_TZTwsTGNKsT-FFZbIs-154" value="&lt;font style=&quot;font-size: 18px&quot;&gt;&lt;span&gt;rst&lt;/span&gt;&lt;/font&gt;" style="text;html=1;strokeColor=none;fillColor=none;align=center;verticalAlign=middle;whiteSpace=wrap;rounded=0;sketch=0;" parent="s_TZTwsTGNKsT-FFZbIs-142" vertex="1">
          <mxGeometry x="50" y="47" width="40" height="18" as="geometry" />
        </mxCell>
        <mxCell id="s_TZTwsTGNKsT-FFZbIs-155" value="&lt;font style=&quot;font-size: 18px&quot;&gt;O1&lt;/font&gt;" style="text;html=1;strokeColor=none;fillColor=none;align=center;verticalAlign=middle;whiteSpace=wrap;rounded=0;sketch=0;" parent="s_TZTwsTGNKsT-FFZbIs-142" vertex="1">
          <mxGeometry x="208" y="149.73000000000002" width="24" height="9.82" as="geometry" />
        </mxCell>
        <mxCell id="s_TZTwsTGNKsT-FFZbIs-205" value="" style="group;rotation=-180;" parent="1" vertex="1" connectable="0">
          <mxGeometry x="424" y="964.69" width="50" height="90" as="geometry" />
        </mxCell>
        <mxCell id="s_TZTwsTGNKsT-FFZbIs-206" value="&lt;font style=&quot;font-size: 18px&quot;&gt;+&amp;nbsp; &lt;br&gt;&lt;/font&gt;" style="shape=stencil(tZXRjoIwEEW/pq+bQsPq6wb1PyqOS2NtSdvV3b93oGCs0I0IJISkc7mHIb1DCcttySsgKS0J25A0TSjFO66vT2tuKyicL164EXwvwSvWGX2Cqzi4liFUCUa4WmVbQr/wmfpieaGVQojQygbKg44wLhR66a+Hta//C1YV8s/gwLRNNtXd68yPbAFqskSnIbPre95OZ6KGvSaL7NQ81ORNJsuxEgsxy/e8OH0b/aMOfVdUO2oDA8JdFlL6AYt9YMXruesJnXzWF/h/moawnVsK9eC+/wxaP5sKWI0FPGWMTvOvx9qz0P+ZTfOzsf7Q/sL+FVLbaHKwHgkPHguDmWs8vcQ2VX+ONIUb);whiteSpace=wrap;html=1;rounded=0;sketch=0;align=right;rotation=-180;" parent="s_TZTwsTGNKsT-FFZbIs-205" vertex="1">
          <mxGeometry width="49.99999999999996" height="90" as="geometry" />
        </mxCell>
        <mxCell id="s_TZTwsTGNKsT-FFZbIs-207" value="" style="endArrow=classic;html=1;entryX=-0.012;entryY=0.121;entryDx=0;entryDy=0;entryPerimeter=0;" parent="1" target="s_TZTwsTGNKsT-FFZbIs-206" edge="1">
          <mxGeometry width="50" height="50" relative="1" as="geometry">
            <mxPoint x="520" y="1044" as="sourcePoint" />
            <mxPoint x="501.5999999999999" y="1052.36" as="targetPoint" />
          </mxGeometry>
        </mxCell>
        <mxCell id="s_TZTwsTGNKsT-FFZbIs-208" value="&lt;font style=&quot;font-size: 18px&quot;&gt;0x0002&lt;/font&gt;" style="edgeLabel;html=1;align=center;verticalAlign=middle;resizable=0;points=[];" parent="s_TZTwsTGNKsT-FFZbIs-207" vertex="1" connectable="0">
          <mxGeometry x="-0.5937" relative="1" as="geometry">
            <mxPoint x="47" y="1" as="offset" />
          </mxGeometry>
        </mxCell>
        <mxCell id="s_TZTwsTGNKsT-FFZbIs-209" style="edgeStyle=orthogonalEdgeStyle;rounded=0;jumpStyle=arc;orthogonalLoop=1;jettySize=auto;html=1;exitX=1;exitY=0.5;exitDx=0;exitDy=0;entryX=0.018;entryY=0.904;entryDx=0;entryDy=0;entryPerimeter=0;" parent="1" source="cg_5Q10Y65cVJ8_udtfW-66" target="s_TZTwsTGNKsT-FFZbIs-206" edge="1">
          <mxGeometry relative="1" as="geometry">
            <mxPoint x="470" y="980" as="targetPoint" />
            <Array as="points">
              <mxPoint x="560" y="395" />
              <mxPoint x="560" y="973" />
              <mxPoint x="473" y="973" />
            </Array>
          </mxGeometry>
        </mxCell>
        <mxCell id="s_TZTwsTGNKsT-FFZbIs-210" style="edgeStyle=orthogonalEdgeStyle;rounded=0;jumpStyle=arc;orthogonalLoop=1;jettySize=auto;html=1;exitX=1;exitY=0.5;exitDx=0;exitDy=0;entryX=0.2;entryY=0.999;entryDx=0;entryDy=0;entryPerimeter=0;" parent="1" source="s_TZTwsTGNKsT-FFZbIs-206" target="5yY2fkMbjsQQD2zNWdAO-98" edge="1">
          <mxGeometry relative="1" as="geometry">
            <Array as="points">
              <mxPoint x="170" y="1010" />
              <mxPoint x="170" y="369" />
            </Array>
          </mxGeometry>
        </mxCell>
        <mxCell id="s_TZTwsTGNKsT-FFZbIs-212" value="" style="group" parent="1" vertex="1" connectable="0">
          <mxGeometry x="199.99500000000035" y="707.9950000000003" width="39.17000000000007" height="78.67999999999984" as="geometry" />
        </mxCell>
        <mxCell id="s_TZTwsTGNKsT-FFZbIs-213" value="" style="shape=trapezoid;perimeter=trapezoidPerimeter;whiteSpace=wrap;html=1;fixedSize=1;rounded=0;sketch=0;size=20.239999999999327;rotation=-90;" parent="s_TZTwsTGNKsT-FFZbIs-212" vertex="1">
          <mxGeometry x="-19.75500000000011" y="19.754999999999654" width="78.68" height="39.17" as="geometry" />
        </mxCell>
        <mxCell id="s_TZTwsTGNKsT-FFZbIs-214" value="1" style="text;html=1;strokeColor=none;fillColor=none;align=center;verticalAlign=middle;whiteSpace=wrap;rounded=0;sketch=0;" parent="s_TZTwsTGNKsT-FFZbIs-212" vertex="1">
          <mxGeometry x="19.16499999999951" y="9.991666666666333" width="20" height="23.33333333333333" as="geometry" />
        </mxCell>
        <mxCell id="s_TZTwsTGNKsT-FFZbIs-215" value="0" style="text;html=1;strokeColor=none;fillColor=none;align=center;verticalAlign=middle;whiteSpace=wrap;rounded=0;sketch=0;" parent="s_TZTwsTGNKsT-FFZbIs-212" vertex="1">
          <mxGeometry x="19.16499999999951" y="38.32833333333292" width="20" height="23.33333333333333" as="geometry" />
        </mxCell>
        <mxCell id="s_TZTwsTGNKsT-FFZbIs-220" style="edgeStyle=orthogonalEdgeStyle;rounded=0;jumpStyle=arc;orthogonalLoop=1;jettySize=auto;html=1;exitX=0.5;exitY=0;exitDx=0;exitDy=0;entryX=0.802;entryY=1.019;entryDx=0;entryDy=0;entryPerimeter=0;" parent="1" source="s_TZTwsTGNKsT-FFZbIs-213" target="5yY2fkMbjsQQD2zNWdAO-98" edge="1">
          <mxGeometry relative="1" as="geometry">
            <mxPoint x="230" y="386" as="targetPoint" />
            <Array as="points">
              <mxPoint x="120" y="747" />
              <mxPoint x="120" y="427" />
            </Array>
          </mxGeometry>
        </mxCell>
        <mxCell id="s_TZTwsTGNKsT-FFZbIs-221" style="edgeStyle=orthogonalEdgeStyle;rounded=0;jumpStyle=arc;orthogonalLoop=1;jettySize=auto;html=1;exitX=1;exitY=0.5;exitDx=0;exitDy=0;entryX=1;entryY=0.5;entryDx=0;entryDy=0;" parent="1" source="s_TZTwsTGNKsT-FFZbIs-206" target="s_TZTwsTGNKsT-FFZbIs-215" edge="1">
          <mxGeometry relative="1" as="geometry">
            <mxPoint x="240" y="751" as="targetPoint" />
            <Array as="points">
              <mxPoint x="280" y="1010" />
              <mxPoint x="280" y="758" />
            </Array>
          </mxGeometry>
        </mxCell>
        <mxCell id="s_TZTwsTGNKsT-FFZbIs-246" value="" style="group" parent="1" vertex="1" connectable="0">
          <mxGeometry x="906.9950000000003" y="960" width="39.17000000000007" height="108.67500000000018" as="geometry" />
        </mxCell>
        <mxCell id="s_TZTwsTGNKsT-FFZbIs-233" value="" style="group;flipV=1;" parent="s_TZTwsTGNKsT-FFZbIs-246" vertex="1" connectable="0">
          <mxGeometry y="29.995000000000346" width="39.17000000000007" height="78.67999999999984" as="geometry" />
        </mxCell>
        <mxCell id="s_TZTwsTGNKsT-FFZbIs-234" value="" style="shape=trapezoid;perimeter=trapezoidPerimeter;whiteSpace=wrap;html=1;fixedSize=1;rounded=0;sketch=0;size=20.239999999999327;rotation=-90;flipV=1;" parent="s_TZTwsTGNKsT-FFZbIs-233" vertex="1">
          <mxGeometry x="-19.75500000000011" y="19.754999999999654" width="78.68" height="39.17" as="geometry" />
        </mxCell>
        <mxCell id="s_TZTwsTGNKsT-FFZbIs-235" value="0" style="text;html=1;strokeColor=none;fillColor=none;align=center;verticalAlign=middle;whiteSpace=wrap;rounded=0;sketch=0;flipV=1;" parent="s_TZTwsTGNKsT-FFZbIs-233" vertex="1">
          <mxGeometry x="0.004999999999508731" y="13.501666666666333" width="20" height="23.33333333333333" as="geometry" />
        </mxCell>
        <mxCell id="s_TZTwsTGNKsT-FFZbIs-236" value="1" style="text;html=1;strokeColor=none;fillColor=none;align=center;verticalAlign=middle;whiteSpace=wrap;rounded=0;sketch=0;flipV=1;" parent="s_TZTwsTGNKsT-FFZbIs-233" vertex="1">
          <mxGeometry x="0.004999999999508731" y="41.83833333333292" width="20" height="23.33333333333333" as="geometry" />
        </mxCell>
        <mxCell id="s_TZTwsTGNKsT-FFZbIs-245" value="" style="endArrow=classic;html=1;entryX=1;entryY=0.5;entryDx=0;entryDy=0;" parent="s_TZTwsTGNKsT-FFZbIs-246" target="s_TZTwsTGNKsT-FFZbIs-234" edge="1">
          <mxGeometry width="50" height="50" relative="1" as="geometry">
            <mxPoint x="20.004999999999654" y="-20" as="sourcePoint" />
            <mxPoint x="40.004999999999654" y="-20" as="targetPoint" />
          </mxGeometry>
        </mxCell>
        <mxCell id="s_TZTwsTGNKsT-FFZbIs-260" style="edgeStyle=orthogonalEdgeStyle;rounded=0;jumpStyle=arc;orthogonalLoop=1;jettySize=auto;html=1;entryX=0;entryY=0.5;entryDx=0;entryDy=0;" parent="1" target="s_TZTwsTGNKsT-FFZbIs-236" edge="1">
          <mxGeometry relative="1" as="geometry">
            <mxPoint x="804" y="1043" as="sourcePoint" />
            <mxPoint x="975.95" y="1060.0233333333335" as="targetPoint" />
          </mxGeometry>
        </mxCell>
        <mxCell id="s_TZTwsTGNKsT-FFZbIs-265" style="edgeStyle=orthogonalEdgeStyle;rounded=0;jumpStyle=arc;orthogonalLoop=1;jettySize=auto;html=1;exitX=1;exitY=0.5;exitDx=0;exitDy=0;entryX=0.5;entryY=1;entryDx=0;entryDy=0;" parent="1" source="s_TZTwsTGNKsT-FFZbIs-206" target="s_TZTwsTGNKsT-FFZbIs-143" edge="1">
          <mxGeometry relative="1" as="geometry">
            <mxPoint x="1166.6666666666667" y="1320" as="targetPoint" />
            <Array as="points">
              <mxPoint x="380" y="1010" />
              <mxPoint x="380" y="1130" />
              <mxPoint x="1097" y="1130" />
            </Array>
          </mxGeometry>
        </mxCell>
        <mxCell id="s_TZTwsTGNKsT-FFZbIs-271" style="edgeStyle=orthogonalEdgeStyle;rounded=0;jumpStyle=arc;orthogonalLoop=1;jettySize=auto;html=1;exitX=1;exitY=0.5;exitDx=0;exitDy=0;entryX=1;entryY=0.25;entryDx=0;entryDy=0;" parent="1" source="cg_5Q10Y65cVJ8_udtfW-66" target="s_TZTwsTGNKsT-FFZbIs-268" edge="1">
          <mxGeometry relative="1" as="geometry">
            <Array as="points">
              <mxPoint x="560" y="395" />
              <mxPoint x="560" y="700" />
            </Array>
          </mxGeometry>
        </mxCell>
        <mxCell id="s_TZTwsTGNKsT-FFZbIs-272" value="" style="group" parent="1" vertex="1" connectable="0">
          <mxGeometry x="340" y="670.31" width="180" height="118.67999999999995" as="geometry" />
        </mxCell>
        <mxCell id="s_TZTwsTGNKsT-FFZbIs-268" value="&lt;div style=&quot;font-size: 20px&quot; align=&quot;center&quot;&gt;&lt;font style=&quot;font-size: 20px&quot;&gt;A[15:12]&lt;/font&gt;&lt;/div&gt;&lt;div style=&quot;font-size: 20px&quot; align=&quot;center&quot;&gt;&lt;font style=&quot;font-size: 20px&quot;&gt;&amp;amp;&lt;/font&gt;&lt;/div&gt;&lt;div style=&quot;font-size: 20px&quot; align=&quot;center&quot;&gt;&lt;font style=&quot;font-size: 20px&quot;&gt;B[11:0]&lt;/font&gt;&lt;/div&gt;" style="rounded=1;whiteSpace=wrap;html=1;align=center;" parent="s_TZTwsTGNKsT-FFZbIs-272" vertex="1">
          <mxGeometry width="180" height="118.68" as="geometry" />
        </mxCell>
        <mxCell id="s_TZTwsTGNKsT-FFZbIs-269" value="&lt;font style=&quot;font-size: 20px&quot;&gt;A&lt;/font&gt;" style="text;html=1;strokeColor=none;fillColor=none;align=center;verticalAlign=middle;whiteSpace=wrap;rounded=0;" parent="s_TZTwsTGNKsT-FFZbIs-272" vertex="1">
          <mxGeometry x="154" y="18.67999999999995" width="20" height="20" as="geometry" />
        </mxCell>
        <mxCell id="s_TZTwsTGNKsT-FFZbIs-270" value="&lt;font style=&quot;font-size: 20px&quot;&gt;B&lt;/font&gt;" style="text;html=1;strokeColor=none;fillColor=none;align=center;verticalAlign=middle;whiteSpace=wrap;rounded=0;" parent="s_TZTwsTGNKsT-FFZbIs-272" vertex="1">
          <mxGeometry x="154" y="78.67999999999995" width="20" height="20" as="geometry" />
        </mxCell>
        <mxCell id="s_TZTwsTGNKsT-FFZbIs-273" style="edgeStyle=orthogonalEdgeStyle;rounded=0;jumpStyle=arc;orthogonalLoop=1;jettySize=auto;html=1;exitX=0;exitY=0.5;exitDx=0;exitDy=0;entryX=1;entryY=0.5;entryDx=0;entryDy=0;" parent="1" source="s_TZTwsTGNKsT-FFZbIs-268" target="s_TZTwsTGNKsT-FFZbIs-214" edge="1">
          <mxGeometry relative="1" as="geometry">
            <Array as="points">
              <mxPoint x="325" y="729" />
              <mxPoint x="239" y="729" />
            </Array>
          </mxGeometry>
        </mxCell>
        <mxCell id="s_TZTwsTGNKsT-FFZbIs-274" style="edgeStyle=orthogonalEdgeStyle;rounded=0;jumpStyle=arc;orthogonalLoop=1;jettySize=auto;html=1;exitX=1;exitY=0.5;exitDx=0;exitDy=0;entryX=1;entryY=0.75;entryDx=0;entryDy=0;" parent="1" source="s_TZTwsTGNKsT-FFZbIs-143" target="s_TZTwsTGNKsT-FFZbIs-268" edge="1">
          <mxGeometry relative="1" as="geometry">
            <mxPoint x="620" y="740" as="targetPoint" />
            <Array as="points">
              <mxPoint x="1270" y="975" />
              <mxPoint x="1270" y="759" />
            </Array>
          </mxGeometry>
        </mxCell>
        <mxCell id="s_TZTwsTGNKsT-FFZbIs-275" value="&lt;font style=&quot;font-size: 20px&quot;&gt;sel_bank_wr&lt;/font&gt;" style="text;html=1;strokeColor=none;fillColor=none;align=center;verticalAlign=middle;whiteSpace=wrap;rounded=0;" parent="1" vertex="1">
          <mxGeometry x="799.6800000000003" y="950" width="120" height="20" as="geometry" />
        </mxCell>
        <mxCell id="s_TZTwsTGNKsT-FFZbIs-295" style="edgeStyle=orthogonalEdgeStyle;rounded=0;jumpStyle=arc;orthogonalLoop=1;jettySize=auto;html=1;exitX=1;exitY=0.5;exitDx=0;exitDy=0;entryX=0.863;entryY=0.996;entryDx=0;entryDy=0;entryPerimeter=0;" parent="1" source="s_TZTwsTGNKsT-FFZbIs-206" target="3nAX13kZ5HZf5Nh2WH-0-4" edge="1">
          <mxGeometry relative="1" as="geometry">
            <mxPoint x="2467.85" y="281.1200000000001" as="targetPoint" />
            <Array as="points">
              <mxPoint x="380" y="1010" />
              <mxPoint x="380" y="1130" />
              <mxPoint x="2360" y="1130" />
              <mxPoint x="2360" y="287" />
              <mxPoint x="2472" y="287" />
            </Array>
          </mxGeometry>
        </mxCell>
        <mxCell id="s_TZTwsTGNKsT-FFZbIs-299" value="&lt;br&gt;&lt;font style=&quot;font-size: 20px&quot;&gt;Funct&lt;/font&gt;" style="text;html=1;strokeColor=none;fillColor=none;align=center;verticalAlign=middle;whiteSpace=wrap;rounded=0;" parent="1" vertex="1">
          <mxGeometry x="1056" y="506" width="40" height="20" as="geometry" />
        </mxCell>
        <mxCell id="s_TZTwsTGNKsT-FFZbIs-301" style="edgeStyle=orthogonalEdgeStyle;rounded=0;jumpStyle=arc;orthogonalLoop=1;jettySize=auto;html=1;exitX=1;exitY=0.5;exitDx=0;exitDy=0;entryX=0;entryY=0.5;entryDx=0;entryDy=0;" parent="1" source="s_TZTwsTGNKsT-FFZbIs-2" target="s_TZTwsTGNKsT-FFZbIs-235" edge="1">
          <mxGeometry relative="1" as="geometry">
            <mxPoint x="2530" y="1229" as="targetPoint" />
            <Array as="points">
              <mxPoint x="1410" y="150" />
              <mxPoint x="1410" y="800" />
              <mxPoint x="740" y="800" />
              <mxPoint x="740" y="1015" />
            </Array>
          </mxGeometry>
        </mxCell>
        <mxCell id="s_TZTwsTGNKsT-FFZbIs-314" style="edgeStyle=orthogonalEdgeStyle;rounded=0;jumpStyle=arc;orthogonalLoop=1;jettySize=auto;html=1;exitX=1;exitY=0.25;exitDx=0;exitDy=0;entryX=0;entryY=0.5;entryDx=0;entryDy=0;" parent="1" source="cg_5Q10Y65cVJ8_udtfW-70" target="s_TZTwsTGNKsT-FFZbIs-35" edge="1">
          <mxGeometry relative="1" as="geometry">
            <mxPoint x="1980" y="503" as="sourcePoint" />
            <mxPoint x="2040" y="-70" as="targetPoint" />
            <Array as="points">
              <mxPoint x="2040" y="268" />
              <mxPoint x="2040" y="-70" />
            </Array>
          </mxGeometry>
        </mxCell>
        <mxCell id="s_TZTwsTGNKsT-FFZbIs-357" value="" style="group" parent="1" vertex="1" connectable="0">
          <mxGeometry x="2580" y="780" width="60" height="130" as="geometry" />
        </mxCell>
        <mxCell id="s_TZTwsTGNKsT-FFZbIs-358" value="&lt;font style=&quot;font-size: 20px&quot;&gt;&amp;lt;&amp;lt;&lt;/font&gt;" style="rounded=1;whiteSpace=wrap;html=1;" parent="s_TZTwsTGNKsT-FFZbIs-357" vertex="1">
          <mxGeometry width="60" height="130" as="geometry" />
        </mxCell>
        <mxCell id="PqLPkz7y5Um0poaI46qX-31" value="&lt;font style=&quot;font-size: 14px&quot;&gt;A&lt;/font&gt;" style="text;html=1;strokeColor=none;fillColor=none;align=center;verticalAlign=middle;whiteSpace=wrap;rounded=0;" parent="s_TZTwsTGNKsT-FFZbIs-357" vertex="1">
          <mxGeometry x="2.9999999999995453" y="99.0040781934614" width="20" height="13.259184361307724" as="geometry" />
        </mxCell>
        <mxCell id="PqLPkz7y5Um0poaI46qX-32" value="&lt;font style=&quot;font-size: 14px&quot;&gt;B&lt;/font&gt;" style="text;html=1;strokeColor=none;fillColor=none;align=center;verticalAlign=middle;whiteSpace=wrap;rounded=0;" parent="s_TZTwsTGNKsT-FFZbIs-357" vertex="1">
          <mxGeometry x="2.9999999999995453" y="26.004078193461282" width="20" height="13.259184361307724" as="geometry" />
        </mxCell>
        <mxCell id="s_TZTwsTGNKsT-FFZbIs-361" style="edgeStyle=orthogonalEdgeStyle;rounded=0;jumpStyle=arc;orthogonalLoop=1;jettySize=auto;html=1;exitX=1;exitY=0.5;exitDx=0;exitDy=0;entryX=0;entryY=0.5;entryDx=0;entryDy=0;" parent="1" source="cg_5Q10Y65cVJ8_udtfW-76" edge="1">
          <mxGeometry relative="1" as="geometry">
            <Array as="points">
              <mxPoint x="2840" y="360" />
              <mxPoint x="2840" y="730" />
              <mxPoint x="2500" y="730" />
              <mxPoint x="2500" y="885" />
            </Array>
            <mxPoint x="2580" y="885.0000000000002" as="targetPoint" />
          </mxGeometry>
        </mxCell>
        <mxCell id="s_TZTwsTGNKsT-FFZbIs-363" style="edgeStyle=orthogonalEdgeStyle;rounded=0;jumpStyle=arc;orthogonalLoop=1;jettySize=auto;html=1;exitX=1;exitY=0.5;exitDx=0;exitDy=0;entryX=0;entryY=0.5;entryDx=0;entryDy=0;" parent="1" source="s_TZTwsTGNKsT-FFZbIs-358" target="5yY2fkMbjsQQD2zNWdAO-28" edge="1">
          <mxGeometry relative="1" as="geometry">
            <mxPoint x="1840" y="810" as="targetPoint" />
            <Array as="points">
              <mxPoint x="2690" y="845" />
              <mxPoint x="2690" y="990" />
              <mxPoint x="1838" y="990" />
            </Array>
          </mxGeometry>
        </mxCell>
        <mxCell id="s_TZTwsTGNKsT-FFZbIs-368" style="edgeStyle=orthogonalEdgeStyle;rounded=0;jumpStyle=arc;orthogonalLoop=1;jettySize=auto;html=1;entryX=1;entryY=0.25;entryDx=0;entryDy=0;exitX=1;exitY=0.25;exitDx=0;exitDy=0;" parent="1" source="cg_5Q10Y65cVJ8_udtfW-70" target="PqLPkz7y5Um0poaI46qX-23" edge="1">
          <mxGeometry relative="1" as="geometry">
            <Array as="points">
              <mxPoint x="2040" y="267" />
              <mxPoint x="2040" y="680" />
              <mxPoint x="2270" y="680" />
              <mxPoint x="2270" y="830" />
            </Array>
            <mxPoint x="2239.9999999999995" y="901.9100000000001" as="targetPoint" />
            <mxPoint x="1990" y="267" as="sourcePoint" />
          </mxGeometry>
        </mxCell>
        <mxCell id="s_TZTwsTGNKsT-FFZbIs-375" value="" style="group" parent="1" vertex="1" connectable="0">
          <mxGeometry x="1949.7550000000006" y="826.0049999999999" width="39.17000000000007" height="78.68000000000006" as="geometry" />
        </mxCell>
        <mxCell id="s_TZTwsTGNKsT-FFZbIs-372" value="" style="shape=trapezoid;perimeter=trapezoidPerimeter;whiteSpace=wrap;html=1;fixedSize=1;rounded=0;sketch=0;size=20.239999999999327;rotation=-90;flipV=0;" parent="s_TZTwsTGNKsT-FFZbIs-375" vertex="1">
          <mxGeometry x="-19.75499999999988" y="19.75500000000011" width="78.68" height="39.17" as="geometry" />
        </mxCell>
        <mxCell id="s_TZTwsTGNKsT-FFZbIs-373" value="1" style="text;html=1;strokeColor=none;fillColor=none;align=center;verticalAlign=middle;whiteSpace=wrap;rounded=0;sketch=0;" parent="s_TZTwsTGNKsT-FFZbIs-375" vertex="1">
          <mxGeometry x="18.9249999999995" y="12.08166666666682" width="20" height="23.33333333333333" as="geometry" />
        </mxCell>
        <mxCell id="s_TZTwsTGNKsT-FFZbIs-374" value="0" style="text;html=1;strokeColor=none;fillColor=none;align=center;verticalAlign=middle;whiteSpace=wrap;rounded=0;sketch=0;rotation=0;" parent="s_TZTwsTGNKsT-FFZbIs-375" vertex="1">
          <mxGeometry x="18.9249999999995" y="40.41833333333341" width="20" height="23.33333333333333" as="geometry" />
        </mxCell>
        <mxCell id="s_TZTwsTGNKsT-FFZbIs-376" style="edgeStyle=orthogonalEdgeStyle;rounded=0;jumpStyle=arc;orthogonalLoop=1;jettySize=auto;html=1;exitX=0;exitY=0.5;exitDx=0;exitDy=0;entryX=1;entryY=0.5;entryDx=0;entryDy=0;" parent="1" source="PqLPkz7y5Um0poaI46qX-23" target="s_TZTwsTGNKsT-FFZbIs-373" edge="1">
          <mxGeometry relative="1" as="geometry">
            <Array as="points">
              <mxPoint x="2000" y="850" />
              <mxPoint x="2000" y="850" />
            </Array>
            <mxPoint x="2080" y="920.0000000000002" as="sourcePoint" />
            <mxPoint x="2020" y="940" as="targetPoint" />
          </mxGeometry>
        </mxCell>
        <mxCell id="PqLPkz7y5Um0poaI46qX-27" style="edgeStyle=orthogonalEdgeStyle;rounded=0;jumpStyle=arc;orthogonalLoop=1;jettySize=auto;html=1;exitX=0;exitY=0.5;exitDx=0;exitDy=0;entryX=0.348;entryY=0.991;entryDx=0;entryDy=0;entryPerimeter=0;" parent="1" source="s_TZTwsTGNKsT-FFZbIs-377" target="s_TZTwsTGNKsT-FFZbIs-372" edge="1">
          <mxGeometry relative="1" as="geometry">
            <mxPoint x="1989" y="950" as="targetPoint" />
            <Array as="points">
              <mxPoint x="2030" y="920" />
              <mxPoint x="2030" y="877" />
            </Array>
          </mxGeometry>
        </mxCell>
        <mxCell id="s_TZTwsTGNKsT-FFZbIs-377" value="&lt;font style=&quot;font-size: 20px&quot;&gt;NOT&lt;/font&gt;" style="rounded=1;whiteSpace=wrap;html=1;strokeColor=#1A1A1A;fillColor=#FFFFFF;" parent="1" vertex="1">
          <mxGeometry x="2115.75" y="902.68" width="68.5" height="35.32" as="geometry" />
        </mxCell>
        <mxCell id="s_TZTwsTGNKsT-FFZbIs-380" style="edgeStyle=orthogonalEdgeStyle;rounded=0;jumpStyle=arc;orthogonalLoop=1;jettySize=auto;html=1;exitX=0.5;exitY=0;exitDx=0;exitDy=0;entryX=0;entryY=0.5;entryDx=0;entryDy=0;" parent="1" source="s_TZTwsTGNKsT-FFZbIs-372" target="5yY2fkMbjsQQD2zNWdAO-31" edge="1">
          <mxGeometry relative="1" as="geometry" />
        </mxCell>
        <mxCell id="i8HT31GNC57bgd-hZuqh-37" style="edgeStyle=orthogonalEdgeStyle;rounded=0;orthogonalLoop=1;jettySize=auto;html=1;exitX=1;exitY=0.5;exitDx=0;exitDy=0;jumpStyle=arc;entryX=0.431;entryY=1.001;entryDx=0;entryDy=0;entryPerimeter=0;" parent="1" source="s_TZTwsTGNKsT-FFZbIs-382" target="3nAX13kZ5HZf5Nh2WH-0-4" edge="1">
          <mxGeometry relative="1" as="geometry">
            <Array as="points">
              <mxPoint x="2290" y="220" />
              <mxPoint x="2290" y="231" />
            </Array>
            <mxPoint x="2450" y="230" as="targetPoint" />
          </mxGeometry>
        </mxCell>
        <mxCell id="s_TZTwsTGNKsT-FFZbIs-382" value="&lt;font style=&quot;font-size: 20px&quot;&gt;&amp;lt;&amp;lt; 6&lt;br&gt;&lt;/font&gt;" style="rounded=1;whiteSpace=wrap;html=1;" parent="1" vertex="1">
          <mxGeometry x="2129.9999999999995" y="200" width="70" height="40" as="geometry" />
        </mxCell>
        <mxCell id="s_TZTwsTGNKsT-FFZbIs-387" style="edgeStyle=orthogonalEdgeStyle;rounded=0;jumpStyle=arc;orthogonalLoop=1;jettySize=auto;html=1;exitX=1;exitY=0.5;exitDx=0;exitDy=0;entryX=0.604;entryY=1.014;entryDx=0;entryDy=0;entryPerimeter=0;" parent="1" source="s_TZTwsTGNKsT-FFZbIs-386" target="cg_5Q10Y65cVJ8_udtfW-95" edge="1">
          <mxGeometry relative="1" as="geometry">
            <mxPoint x="2470" y="490" as="targetPoint" />
            <Array as="points">
              <mxPoint x="2390" y="1091" />
              <mxPoint x="2390" y="487" />
              <mxPoint x="2470" y="487" />
            </Array>
          </mxGeometry>
        </mxCell>
        <mxCell id="s_TZTwsTGNKsT-FFZbIs-386" value="&lt;font style=&quot;font-size: 20px&quot;&gt;4 ^ A&lt;br&gt;&lt;/font&gt;" style="rounded=1;whiteSpace=wrap;html=1;" parent="1" vertex="1">
          <mxGeometry x="2154.5" y="1070" width="130" height="41" as="geometry" />
        </mxCell>
        <mxCell id="s_TZTwsTGNKsT-FFZbIs-392" style="edgeStyle=orthogonalEdgeStyle;rounded=0;jumpStyle=arc;orthogonalLoop=1;jettySize=auto;html=1;exitX=1;exitY=0.5;exitDx=0;exitDy=0;entryX=0.008;entryY=0.093;entryDx=0;entryDy=0;entryPerimeter=0;" parent="1" source="cg_5Q10Y65cVJ8_udtfW-66" target="s_TZTwsTGNKsT-FFZbIs-390" edge="1">
          <mxGeometry relative="1" as="geometry">
            <mxPoint x="430" y="395" as="sourcePoint" />
            <mxPoint x="190" y="-10" as="targetPoint" />
            <Array as="points">
              <mxPoint x="560" y="395" />
              <mxPoint x="560" y="-68" />
              <mxPoint x="485" y="-68" />
            </Array>
          </mxGeometry>
        </mxCell>
        <mxCell id="s_TZTwsTGNKsT-FFZbIs-394" value="" style="group" parent="1" vertex="1" connectable="0">
          <mxGeometry x="640" y="-43" width="60" height="130" as="geometry" />
        </mxCell>
        <mxCell id="s_TZTwsTGNKsT-FFZbIs-395" value="&lt;font style=&quot;font-size: 20px&quot;&gt;&amp;lt;&amp;lt;&lt;/font&gt;" style="rounded=1;whiteSpace=wrap;html=1;" parent="s_TZTwsTGNKsT-FFZbIs-394" vertex="1">
          <mxGeometry width="60" height="130" as="geometry" />
        </mxCell>
        <mxCell id="PqLPkz7y5Um0poaI46qX-37" value="&lt;font style=&quot;font-size: 14px&quot;&gt;A&lt;/font&gt;" style="text;html=1;strokeColor=none;fillColor=none;align=center;verticalAlign=middle;whiteSpace=wrap;rounded=0;" parent="s_TZTwsTGNKsT-FFZbIs-394" vertex="1">
          <mxGeometry x="39.999999999999545" y="99.74407819346139" width="20" height="13.259184361307724" as="geometry" />
        </mxCell>
        <mxCell id="PqLPkz7y5Um0poaI46qX-38" value="&lt;font style=&quot;font-size: 14px&quot;&gt;B&lt;/font&gt;" style="text;html=1;strokeColor=none;fillColor=none;align=center;verticalAlign=middle;whiteSpace=wrap;rounded=0;" parent="s_TZTwsTGNKsT-FFZbIs-394" vertex="1">
          <mxGeometry x="39.999999999999545" y="18.74407819346128" width="20" height="13.259184361307724" as="geometry" />
        </mxCell>
        <mxCell id="s_TZTwsTGNKsT-FFZbIs-398" style="edgeStyle=orthogonalEdgeStyle;rounded=0;jumpStyle=arc;orthogonalLoop=1;jettySize=auto;html=1;exitX=1;exitY=0.5;exitDx=0;exitDy=0;entryX=1;entryY=0.5;entryDx=0;entryDy=0;" parent="1" source="cg_5Q10Y65cVJ8_udtfW-66" edge="1">
          <mxGeometry relative="1" as="geometry">
            <Array as="points">
              <mxPoint x="560" y="395" />
              <mxPoint x="560" y="130" />
              <mxPoint x="780" y="130" />
              <mxPoint x="780" y="62" />
            </Array>
            <mxPoint x="699" y="62" as="targetPoint" />
          </mxGeometry>
        </mxCell>
        <mxCell id="s_TZTwsTGNKsT-FFZbIs-400" value="" style="group" parent="1" vertex="1" connectable="0">
          <mxGeometry x="179.75500000000034" y="44.31500000000034" width="39.17000000000007" height="78.67999999999984" as="geometry" />
        </mxCell>
        <mxCell id="s_TZTwsTGNKsT-FFZbIs-401" value="" style="shape=trapezoid;perimeter=trapezoidPerimeter;whiteSpace=wrap;html=1;fixedSize=1;rounded=0;sketch=0;size=20.239999999999327;rotation=-90;" parent="s_TZTwsTGNKsT-FFZbIs-400" vertex="1">
          <mxGeometry x="-19.75500000000011" y="19.754999999999654" width="78.68" height="39.17" as="geometry" />
        </mxCell>
        <mxCell id="s_TZTwsTGNKsT-FFZbIs-402" value="1" style="text;html=1;strokeColor=none;fillColor=none;align=center;verticalAlign=middle;whiteSpace=wrap;rounded=0;sketch=0;" parent="s_TZTwsTGNKsT-FFZbIs-400" vertex="1">
          <mxGeometry x="19.17499999999951" y="14.991666666666333" width="20" height="23.33333333333333" as="geometry" />
        </mxCell>
        <mxCell id="s_TZTwsTGNKsT-FFZbIs-403" value="0" style="text;html=1;strokeColor=none;fillColor=none;align=center;verticalAlign=middle;whiteSpace=wrap;rounded=0;sketch=0;" parent="s_TZTwsTGNKsT-FFZbIs-400" vertex="1">
          <mxGeometry x="19.17499999999951" y="38.32833333333292" width="20" height="23.33333333333333" as="geometry" />
        </mxCell>
        <mxCell id="s_TZTwsTGNKsT-FFZbIs-405" style="edgeStyle=orthogonalEdgeStyle;rounded=0;jumpStyle=arc;orthogonalLoop=1;jettySize=auto;html=1;exitX=1;exitY=0.5;exitDx=0;exitDy=0;" parent="1" source="s_TZTwsTGNKsT-FFZbIs-390" edge="1">
          <mxGeometry relative="1" as="geometry">
            <mxPoint x="219" y="70" as="targetPoint" />
            <Array as="points">
              <mxPoint x="400" y="-105" />
              <mxPoint x="400" y="70" />
            </Array>
          </mxGeometry>
        </mxCell>
        <mxCell id="s_TZTwsTGNKsT-FFZbIs-406" style="edgeStyle=orthogonalEdgeStyle;rounded=0;jumpStyle=arc;orthogonalLoop=1;jettySize=auto;html=1;exitX=0;exitY=0.5;exitDx=0;exitDy=0;entryX=1;entryY=0.5;entryDx=0;entryDy=0;" parent="1" source="s_TZTwsTGNKsT-FFZbIs-395" target="s_TZTwsTGNKsT-FFZbIs-403" edge="1">
          <mxGeometry relative="1" as="geometry">
            <Array as="points">
              <mxPoint x="480" y="22" />
              <mxPoint x="480" y="94" />
            </Array>
          </mxGeometry>
        </mxCell>
        <mxCell id="s_TZTwsTGNKsT-FFZbIs-407" style="edgeStyle=orthogonalEdgeStyle;rounded=0;jumpStyle=arc;orthogonalLoop=1;jettySize=auto;html=1;exitX=0.5;exitY=0;exitDx=0;exitDy=0;entryX=0.403;entryY=0.985;entryDx=0;entryDy=0;entryPerimeter=0;" parent="1" source="s_TZTwsTGNKsT-FFZbIs-401" target="5yY2fkMbjsQQD2zNWdAO-98" edge="1">
          <mxGeometry relative="1" as="geometry">
            <mxPoint x="160" y="350" as="targetPoint" />
            <Array as="points">
              <mxPoint x="150" y="84" />
              <mxPoint x="150" y="389" />
            </Array>
          </mxGeometry>
        </mxCell>
        <mxCell id="s_TZTwsTGNKsT-FFZbIs-408" value="&lt;font style=&quot;font-size: 21px&quot;&gt;q&lt;/font&gt;" style="text;html=1;strokeColor=none;fillColor=none;align=center;verticalAlign=middle;whiteSpace=wrap;rounded=0;" parent="1" vertex="1">
          <mxGeometry x="1087" y="430" width="20" height="16" as="geometry" />
        </mxCell>
        <mxCell id="s_TZTwsTGNKsT-FFZbIs-409" value="" style="endArrow=classic;html=1;entryX=1;entryY=0.5;entryDx=0;entryDy=0;" parent="1" target="s_TZTwsTGNKsT-FFZbIs-401" edge="1">
          <mxGeometry width="50" height="50" relative="1" as="geometry">
            <mxPoint x="199" as="sourcePoint" />
            <mxPoint x="180" y="-10" as="targetPoint" />
          </mxGeometry>
        </mxCell>
        <mxCell id="s_TZTwsTGNKsT-FFZbIs-410" value="&lt;font style=&quot;font-size: 20px&quot;&gt;sel_pc_beon&lt;/font&gt;" style="text;html=1;strokeColor=none;fillColor=none;align=center;verticalAlign=middle;whiteSpace=wrap;rounded=0;" parent="1" vertex="1">
          <mxGeometry x="213.76" y="12.319999999999993" width="100" height="20" as="geometry" />
        </mxCell>
        <mxCell id="i8HT31GNC57bgd-hZuqh-2" value="" style="endArrow=classic;html=1;entryX=1;entryY=0.5;entryDx=0;entryDy=0;" parent="1" target="s_TZTwsTGNKsT-FFZbIs-213" edge="1">
          <mxGeometry width="50" height="50" relative="1" as="geometry">
            <mxPoint x="220" y="640" as="sourcePoint" />
            <mxPoint x="120" y="640" as="targetPoint" />
          </mxGeometry>
        </mxCell>
        <mxCell id="i8HT31GNC57bgd-hZuqh-3" value="&lt;span style=&quot;font-size: 20px&quot;&gt;sel_pc_bgti&lt;/span&gt;" style="text;html=1;strokeColor=none;fillColor=none;align=center;verticalAlign=middle;whiteSpace=wrap;rounded=0;sketch=0;" parent="1" vertex="1">
          <mxGeometry x="223" y="650" width="110.83" height="20" as="geometry" />
        </mxCell>
        <mxCell id="i8HT31GNC57bgd-hZuqh-5" value="" style="endArrow=classic;html=1;entryX=0;entryY=0.75;entryDx=0;entryDy=0;" parent="1" target="s_TZTwsTGNKsT-FFZbIs-143" edge="1">
          <mxGeometry width="50" height="50" relative="1" as="geometry">
            <mxPoint x="946" y="1032" as="sourcePoint" />
            <mxPoint x="957" y="1070" as="targetPoint" />
          </mxGeometry>
        </mxCell>
        <mxCell id="i8HT31GNC57bgd-hZuqh-8" value="" style="endArrow=classic;html=1;exitX=0.5;exitY=0;exitDx=0;exitDy=0;entryX=0;entryY=0.513;entryDx=0;entryDy=0;entryPerimeter=0;" parent="1" source="s_TZTwsTGNKsT-FFZbIs-98" target="s_TZTwsTGNKsT-FFZbIs-3" edge="1">
          <mxGeometry width="50" height="50" relative="1" as="geometry">
            <mxPoint x="3230.84" y="450" as="sourcePoint" />
            <mxPoint x="3059.84" y="375" as="targetPoint" />
          </mxGeometry>
        </mxCell>
        <mxCell id="i8HT31GNC57bgd-hZuqh-15" value="&lt;font style=&quot;font-size: 18px&quot;&gt;0x0003&lt;/font&gt;" style="text;html=1;align=center;verticalAlign=middle;resizable=0;points=[];autosize=1;strokeColor=none;" parent="1" vertex="1">
          <mxGeometry x="730" y="1035" width="70" height="20" as="geometry" />
        </mxCell>
        <mxCell id="i8HT31GNC57bgd-hZuqh-17" value="" style="endArrow=classic;html=1;entryX=1;entryY=0.5;entryDx=0;entryDy=0;" parent="1" target="s_TZTwsTGNKsT-FFZbIs-61" edge="1">
          <mxGeometry width="50" height="50" relative="1" as="geometry">
            <mxPoint x="1644" y="940" as="sourcePoint" />
            <mxPoint x="1704" y="1090" as="targetPoint" />
          </mxGeometry>
        </mxCell>
        <mxCell id="i8HT31GNC57bgd-hZuqh-18" value="&lt;div&gt;&lt;span style=&quot;font-size: 20px&quot;&gt;sel_rd_cmpi&lt;/span&gt;&lt;/div&gt;" style="text;html=1;strokeColor=none;fillColor=none;align=center;verticalAlign=middle;whiteSpace=wrap;rounded=0;sketch=0;" parent="1" vertex="1">
          <mxGeometry x="1690" y="959.9972727272728" width="40" height="9.818181818181817" as="geometry" />
        </mxCell>
        <mxCell id="i8HT31GNC57bgd-hZuqh-24" value="&lt;span style=&quot;font-size: 20px&quot;&gt;alu_op&lt;/span&gt;" style="text;html=1;strokeColor=none;fillColor=none;align=center;verticalAlign=middle;whiteSpace=wrap;rounded=0;sketch=0;" parent="1" vertex="1">
          <mxGeometry x="2729.36" y="506" width="40" height="20" as="geometry" />
        </mxCell>
        <mxCell id="i8HT31GNC57bgd-hZuqh-25" value="" style="endArrow=classic;html=1;strokeColor=#000000;jumpStyle=arc;entryX=0.86;entryY=0.741;entryDx=0;entryDy=0;entryPerimeter=0;" parent="1" target="cg_5Q10Y65cVJ8_udtfW-76" edge="1">
          <mxGeometry width="50" height="50" relative="1" as="geometry">
            <mxPoint x="2710" y="535" as="sourcePoint" />
            <mxPoint x="2750" y="440" as="targetPoint" />
          </mxGeometry>
        </mxCell>
        <mxCell id="i8HT31GNC57bgd-hZuqh-28" value="&lt;font style=&quot;font-size: 18px&quot;&gt;0xFFFF&lt;/font&gt;" style="text;html=1;align=center;verticalAlign=middle;resizable=0;points=[];autosize=1;strokeColor=none;" parent="1" vertex="1">
          <mxGeometry x="1699.6799999999998" y="1003" width="80" height="20" as="geometry" />
        </mxCell>
        <mxCell id="i8HT31GNC57bgd-hZuqh-29" value="&lt;font style=&quot;font-size: 18px&quot;&gt;0x0000&lt;/font&gt;" style="text;html=1;align=center;verticalAlign=middle;resizable=0;points=[];autosize=1;strokeColor=none;" parent="1" vertex="1">
          <mxGeometry x="1706.6799999999998" y="1033" width="70" height="20" as="geometry" />
        </mxCell>
        <mxCell id="5yY2fkMbjsQQD2zNWdAO-22" value="&lt;font style=&quot;font-size: 20px&quot;&gt;alu_zero&lt;/font&gt;" style="text;html=1;strokeColor=none;fillColor=none;align=center;verticalAlign=middle;whiteSpace=wrap;rounded=0;sketch=0;" parent="1" vertex="1">
          <mxGeometry x="2628" y="153" width="40" height="20" as="geometry" />
        </mxCell>
        <mxCell id="5yY2fkMbjsQQD2zNWdAO-220" value="" style="endArrow=classic;html=1;strokeColor=#000000;entryX=1;entryY=0.25;entryDx=0;entryDy=0;jumpStyle=arc;" parent="1" target="3nAX13kZ5HZf5Nh2WH-0-4" edge="1">
          <mxGeometry width="50" height="50" relative="1" as="geometry">
            <mxPoint x="2511" y="340" as="sourcePoint" />
            <mxPoint x="2501.3333333333335" y="285" as="targetPoint" />
          </mxGeometry>
        </mxCell>
        <mxCell id="5yY2fkMbjsQQD2zNWdAO-34" value="&lt;br&gt;&lt;font style=&quot;font-size: 20px&quot;&gt;sel_mrf_wd&lt;/font&gt;" style="text;html=1;strokeColor=none;fillColor=none;align=center;verticalAlign=middle;whiteSpace=wrap;rounded=0;" parent="1" vertex="1">
          <mxGeometry x="1605" y="740" width="40" height="20" as="geometry" />
        </mxCell>
        <mxCell id="i8HT31GNC57bgd-hZuqh-45" style="edgeStyle=orthogonalEdgeStyle;rounded=0;orthogonalLoop=1;jettySize=auto;html=1;exitX=1;exitY=0.5;exitDx=0;exitDy=0;jumpStyle=arc;entryX=0.201;entryY=0.997;entryDx=0;entryDy=0;entryPerimeter=0;" parent="1" source="cg_5Q10Y65cVJ8_udtfW-70" target="cg_5Q10Y65cVJ8_udtfW-95" edge="1">
          <mxGeometry relative="1" as="geometry">
            <mxPoint x="2420" y="436" as="targetPoint" />
            <Array as="points">
              <mxPoint x="2300" y="385" />
              <mxPoint x="2300" y="439" />
            </Array>
          </mxGeometry>
        </mxCell>
        <mxCell id="i8HT31GNC57bgd-hZuqh-46" style="edgeStyle=orthogonalEdgeStyle;rounded=0;orthogonalLoop=1;jettySize=auto;html=1;exitX=1;exitY=0.25;exitDx=0;exitDy=0;entryX=0;entryY=0.5;entryDx=0;entryDy=0;jumpStyle=arc;" parent="1" source="cg_5Q10Y65cVJ8_udtfW-70" target="s_TZTwsTGNKsT-FFZbIs-382" edge="1">
          <mxGeometry relative="1" as="geometry">
            <Array as="points">
              <mxPoint x="2040" y="268" />
              <mxPoint x="2040" y="220" />
            </Array>
          </mxGeometry>
        </mxCell>
        <mxCell id="i8HT31GNC57bgd-hZuqh-47" style="edgeStyle=orthogonalEdgeStyle;rounded=0;orthogonalLoop=1;jettySize=auto;html=1;entryX=1;entryY=0.75;entryDx=0;entryDy=0;jumpStyle=arc;exitX=1;exitY=0.5;exitDx=0;exitDy=0;" parent="1" source="cg_5Q10Y65cVJ8_udtfW-70" target="PqLPkz7y5Um0poaI46qX-23" edge="1">
          <mxGeometry relative="1" as="geometry">
            <Array as="points">
              <mxPoint x="2300" y="385" />
              <mxPoint x="2300" y="870" />
              <mxPoint x="2240" y="870" />
            </Array>
            <mxPoint x="2239.9999999999995" y="940.6312234580382" as="targetPoint" />
            <mxPoint x="1990" y="370" as="sourcePoint" />
          </mxGeometry>
        </mxCell>
        <mxCell id="i8HT31GNC57bgd-hZuqh-57" style="edgeStyle=orthogonalEdgeStyle;rounded=0;jumpStyle=arc;orthogonalLoop=1;jettySize=auto;html=1;exitX=1;exitY=0.5;exitDx=0;exitDy=0;entryX=0;entryY=0.5;entryDx=0;entryDy=0;" parent="1" source="cg_5Q10Y65cVJ8_udtfW-76" target="s_TZTwsTGNKsT-FFZbIs-99" edge="1">
          <mxGeometry relative="1" as="geometry" />
        </mxCell>
        <mxCell id="i8HT31GNC57bgd-hZuqh-58" value="" style="endArrow=classic;html=1;entryX=1;entryY=0.5;entryDx=0;entryDy=0;" parent="1" target="s_TZTwsTGNKsT-FFZbIs-372" edge="1">
          <mxGeometry width="50" height="50" relative="1" as="geometry">
            <mxPoint x="1969" y="750" as="sourcePoint" />
            <mxPoint x="1960.0000000000005" y="840.0550000000003" as="targetPoint" />
          </mxGeometry>
        </mxCell>
        <mxCell id="i8HT31GNC57bgd-hZuqh-59" value="&lt;div&gt;&lt;span style=&quot;font-size: 20px&quot;&gt;sel_rd_beon&lt;/span&gt;&lt;/div&gt;" style="text;html=1;strokeColor=none;fillColor=none;align=center;verticalAlign=middle;whiteSpace=wrap;rounded=0;sketch=0;" parent="1" vertex="1">
          <mxGeometry x="2013" y="770.1772727272728" width="40" height="9.818181818181817" as="geometry" />
        </mxCell>
        <mxCell id="i8HT31GNC57bgd-hZuqh-60" style="edgeStyle=orthogonalEdgeStyle;rounded=0;jumpStyle=arc;orthogonalLoop=1;jettySize=auto;html=1;exitX=1;exitY=0.25;exitDx=0;exitDy=0;entryX=1;entryY=0.5;entryDx=0;entryDy=0;" parent="1" source="cg_5Q10Y65cVJ8_udtfW-70" target="s_TZTwsTGNKsT-FFZbIs-377" edge="1">
          <mxGeometry relative="1" as="geometry">
            <Array as="points">
              <mxPoint x="2040" y="267" />
              <mxPoint x="2040" y="680" />
              <mxPoint x="2270" y="680" />
              <mxPoint x="2270" y="920" />
            </Array>
            <mxPoint x="2210" y="830" as="targetPoint" />
          </mxGeometry>
        </mxCell>
        <mxCell id="i8HT31GNC57bgd-hZuqh-62" style="edgeStyle=orthogonalEdgeStyle;rounded=0;jumpStyle=arc;orthogonalLoop=1;jettySize=auto;html=1;exitX=1;exitY=0.5;exitDx=0;exitDy=0;entryX=0;entryY=0.889;entryDx=0;entryDy=0;entryPerimeter=0;" parent="1" source="cg_5Q10Y65cVJ8_udtfW-76" target="s_TZTwsTGNKsT-FFZbIs-390" edge="1">
          <mxGeometry relative="1" as="geometry">
            <Array as="points">
              <mxPoint x="2840" y="360" />
              <mxPoint x="2840" y="-510" />
              <mxPoint x="1280" y="-510" />
              <mxPoint x="1280" y="-200" />
              <mxPoint x="570" y="-200" />
              <mxPoint x="570" y="-140" />
            </Array>
          </mxGeometry>
        </mxCell>
        <mxCell id="5yY2fkMbjsQQD2zNWdAO-223" value="&lt;font style=&quot;font-size: 20px&quot;&gt;sel_mrf_wr&lt;/font&gt;" style="text;html=1;strokeColor=none;fillColor=none;align=center;verticalAlign=middle;whiteSpace=wrap;rounded=0;sketch=0;" parent="1" vertex="1">
          <mxGeometry x="1609" y="637" width="40" height="20" as="geometry" />
        </mxCell>
        <mxCell id="i8HT31GNC57bgd-hZuqh-87" value="" style="ellipse;whiteSpace=wrap;html=1;fillColor=#000000;" parent="1" vertex="1">
          <mxGeometry x="1468" y="208" width="4" height="4" as="geometry" />
        </mxCell>
        <mxCell id="i8HT31GNC57bgd-hZuqh-88" value="" style="ellipse;whiteSpace=wrap;html=1;fillColor=#000000;" parent="1" vertex="1">
          <mxGeometry x="1438" y="268" width="4" height="4" as="geometry" />
        </mxCell>
        <mxCell id="i8HT31GNC57bgd-hZuqh-89" value="" style="ellipse;whiteSpace=wrap;html=1;fillColor=#000000;" parent="1" vertex="1">
          <mxGeometry x="1498" y="238" width="4" height="4" as="geometry" />
        </mxCell>
        <mxCell id="s_TZTwsTGNKsT-FFZbIs-390" value="&lt;font style=&quot;font-size: 18px&quot;&gt;+&amp;nbsp; &lt;br&gt;&lt;/font&gt;" style="shape=stencil(tZXRjoIwEEW/pq+bQsPq6wb1PyqOS2NtSdvV3b93oGCs0I0IJISkc7mHIb1DCcttySsgKS0J25A0TSjFO66vT2tuKyicL164EXwvwSvWGX2Cqzi4liFUCUa4WmVbQr/wmfpieaGVQojQygbKg44wLhR66a+Hta//C1YV8s/gwLRNNtXd68yPbAFqskSnIbPre95OZ6KGvSaL7NQ81ORNJsuxEgsxy/e8OH0b/aMOfVdUO2oDA8JdFlL6AYt9YMXruesJnXzWF/h/moawnVsK9eC+/wxaP5sKWI0FPGWMTvOvx9qz0P+ZTfOzsf7Q/sL+FVLbaHKwHgkPHguDmWs8vcQ2VX+ONIUb);whiteSpace=wrap;html=1;rounded=0;sketch=0;align=right;rotation=-180;" parent="1" vertex="1">
          <mxGeometry x="435" y="-150" width="49.99999999999996" height="90" as="geometry" />
        </mxCell>
        <mxCell id="i8HT31GNC57bgd-hZuqh-93" value="&lt;font style=&quot;font-size: 14px&quot;&gt;A&lt;/font&gt;" style="text;html=1;strokeColor=none;fillColor=none;align=center;verticalAlign=middle;whiteSpace=wrap;rounded=0;" parent="1" vertex="1">
          <mxGeometry x="2153.5" y="1080.5" width="20" height="20" as="geometry" />
        </mxCell>
        <mxCell id="PqLPkz7y5Um0poaI46qX-2" value="" style="group" parent="1" vertex="1" connectable="0">
          <mxGeometry x="2029.9999999999998" y="1150" width="180" height="78.68" as="geometry" />
        </mxCell>
        <mxCell id="PqLPkz7y5Um0poaI46qX-3" value="&lt;div style=&quot;font-size: 20px&quot; align=&quot;center&quot;&gt;&lt;font style=&quot;font-size: 20px&quot;&gt;A &amp;amp; B&lt;/font&gt;&lt;/div&gt;" style="rounded=1;whiteSpace=wrap;html=1;align=center;" parent="PqLPkz7y5Um0poaI46qX-2" vertex="1">
          <mxGeometry width="180" height="78.68000000000005" as="geometry" />
        </mxCell>
        <mxCell id="PqLPkz7y5Um0poaI46qX-4" value="&lt;font style=&quot;font-size: 14px&quot;&gt;A&lt;/font&gt;" style="text;html=1;strokeColor=none;fillColor=none;align=center;verticalAlign=middle;whiteSpace=wrap;rounded=0;" parent="PqLPkz7y5Um0poaI46qX-2" vertex="1">
          <mxGeometry x="3.0500000000000114" y="13.384078193461383" width="20" height="13.259184361307724" as="geometry" />
        </mxCell>
        <mxCell id="PqLPkz7y5Um0poaI46qX-28" value="&lt;font style=&quot;font-size: 14px&quot;&gt;B&lt;/font&gt;" style="text;html=1;strokeColor=none;fillColor=none;align=center;verticalAlign=middle;whiteSpace=wrap;rounded=0;" parent="PqLPkz7y5Um0poaI46qX-2" vertex="1">
          <mxGeometry x="3.0499999999999545" y="53.00407819346128" width="20" height="13.259184361307724" as="geometry" />
        </mxCell>
        <mxCell id="PqLPkz7y5Um0poaI46qX-12" style="edgeStyle=orthogonalEdgeStyle;rounded=0;jumpStyle=arc;orthogonalLoop=1;jettySize=auto;html=1;entryX=0;entryY=0.5;entryDx=0;entryDy=0;" parent="1" source="PqLPkz7y5Um0poaI46qX-7" target="PqLPkz7y5Um0poaI46qX-9" edge="1">
          <mxGeometry relative="1" as="geometry" />
        </mxCell>
        <mxCell id="PqLPkz7y5Um0poaI46qX-7" value="&lt;font style=&quot;font-size: 20px&quot;&gt;ZE&lt;/font&gt;" style="rounded=1;whiteSpace=wrap;html=1;" parent="1" vertex="1">
          <mxGeometry x="2258.05" y="1169.3400000000001" width="40" height="40" as="geometry" />
        </mxCell>
        <mxCell id="PqLPkz7y5Um0poaI46qX-16" style="edgeStyle=orthogonalEdgeStyle;rounded=0;jumpStyle=arc;orthogonalLoop=1;jettySize=auto;html=1;exitX=1;exitY=0.5;exitDx=0;exitDy=0;entryX=0.803;entryY=0.994;entryDx=0;entryDy=0;entryPerimeter=0;" parent="1" source="PqLPkz7y5Um0poaI46qX-9" target="cg_5Q10Y65cVJ8_udtfW-95" edge="1">
          <mxGeometry relative="1" as="geometry">
            <Array as="points">
              <mxPoint x="2420" y="1189" />
              <mxPoint x="2420" y="511" />
              <mxPoint x="2471" y="511" />
            </Array>
          </mxGeometry>
        </mxCell>
        <mxCell id="PqLPkz7y5Um0poaI46qX-9" value="&lt;font style=&quot;font-size: 20px&quot;&gt;&lt;font style=&quot;font-size: 20px&quot;&gt;&amp;lt;&amp;lt; 1&lt;/font&gt;&lt;br&gt;&lt;/font&gt;" style="rounded=1;whiteSpace=wrap;html=1;" parent="1" vertex="1">
          <mxGeometry x="2338.05" y="1169.3400000000001" width="50" height="40" as="geometry" />
        </mxCell>
        <mxCell id="PqLPkz7y5Um0poaI46qX-13" style="edgeStyle=orthogonalEdgeStyle;rounded=0;jumpStyle=arc;orthogonalLoop=1;jettySize=auto;html=1;exitX=1;exitY=0.5;exitDx=0;exitDy=0;entryX=0;entryY=0.5;entryDx=0;entryDy=0;" parent="1" source="PqLPkz7y5Um0poaI46qX-3" target="PqLPkz7y5Um0poaI46qX-7" edge="1">
          <mxGeometry relative="1" as="geometry" />
        </mxCell>
        <mxCell id="PqLPkz7y5Um0poaI46qX-19" style="edgeStyle=orthogonalEdgeStyle;rounded=0;jumpStyle=arc;orthogonalLoop=1;jettySize=auto;html=1;exitX=1;exitY=0.5;exitDx=0;exitDy=0;entryX=0.602;entryY=1.042;entryDx=0;entryDy=0;entryPerimeter=0;" parent="1" source="cg_5Q10Y65cVJ8_udtfW-76" target="5yY2fkMbjsQQD2zNWdAO-98" edge="1">
          <mxGeometry relative="1" as="geometry">
            <mxPoint x="243.33333333333334" y="280.0000000000002" as="targetPoint" />
            <Array as="points">
              <mxPoint x="2840" y="360" />
              <mxPoint x="2840" y="-510" />
              <mxPoint x="1280" y="-510" />
              <mxPoint x="1280" y="-200" />
              <mxPoint x="120" y="-200" />
              <mxPoint x="120" y="408" />
            </Array>
          </mxGeometry>
        </mxCell>
        <mxCell id="PqLPkz7y5Um0poaI46qX-22" value="" style="group" parent="1" vertex="1" connectable="0">
          <mxGeometry x="2060" y="810.4100000000001" width="180" height="78.68" as="geometry" />
        </mxCell>
        <mxCell id="PqLPkz7y5Um0poaI46qX-23" value="&lt;div style=&quot;font-size: 20px&quot; align=&quot;center&quot;&gt;&lt;font style=&quot;font-size: 20px&quot;&gt;A[15:8] &amp;amp;&lt;/font&gt;&lt;/div&gt;&lt;div style=&quot;font-size: 20px&quot; align=&quot;center&quot;&gt;&lt;font style=&quot;font-size: 20px&quot;&gt;B[7:0]&lt;/font&gt;&lt;/div&gt;" style="rounded=1;whiteSpace=wrap;html=1;align=center;" parent="PqLPkz7y5Um0poaI46qX-22" vertex="1">
          <mxGeometry width="180" height="78.68000000000005" as="geometry" />
        </mxCell>
        <mxCell id="PqLPkz7y5Um0poaI46qX-29" value="&lt;font style=&quot;font-size: 14px&quot;&gt;A&lt;/font&gt;" style="text;html=1;strokeColor=none;fillColor=none;align=center;verticalAlign=middle;whiteSpace=wrap;rounded=0;" parent="1" vertex="1">
          <mxGeometry x="2216.9999999999995" y="825.5340781934615" width="20" height="13.259184361307724" as="geometry" />
        </mxCell>
        <mxCell id="PqLPkz7y5Um0poaI46qX-30" value="&lt;font style=&quot;font-size: 14px&quot;&gt;B&lt;/font&gt;" style="text;html=1;strokeColor=none;fillColor=none;align=center;verticalAlign=middle;whiteSpace=wrap;rounded=0;" parent="1" vertex="1">
          <mxGeometry x="2216.9999999999995" y="865.1540781934614" width="20" height="13.259184361307724" as="geometry" />
        </mxCell>
        <mxCell id="PqLPkz7y5Um0poaI46qX-35" value="&lt;font style=&quot;font-size: 14px&quot;&gt;A&lt;/font&gt;" style="text;html=1;strokeColor=none;fillColor=none;align=center;verticalAlign=middle;whiteSpace=wrap;rounded=0;" parent="1" vertex="1">
          <mxGeometry x="1859.9999999999995" y="-296.9959218065386" width="20" height="13.259184361307724" as="geometry" />
        </mxCell>
        <mxCell id="PqLPkz7y5Um0poaI46qX-36" value="&lt;font style=&quot;font-size: 14px&quot;&gt;B&lt;/font&gt;" style="text;html=1;strokeColor=none;fillColor=none;align=center;verticalAlign=middle;whiteSpace=wrap;rounded=0;" parent="1" vertex="1">
          <mxGeometry x="1859.9999999999995" y="-377.9959218065387" width="20" height="13.259184361307724" as="geometry" />
        </mxCell>
        <mxCell id="3nAX13kZ5HZf5Nh2WH-0-3" style="edgeStyle=orthogonalEdgeStyle;rounded=0;jumpStyle=arc;orthogonalLoop=1;jettySize=auto;html=1;exitX=1;exitY=0.75;exitDx=0;exitDy=0;entryX=0.726;entryY=1.006;entryDx=0;entryDy=0;entryPerimeter=0;" parent="1" source="cg_5Q10Y65cVJ8_udtfW-70" target="3nAX13kZ5HZf5Nh2WH-0-4" edge="1">
          <mxGeometry relative="1" as="geometry">
            <mxPoint x="2460" y="261" as="targetPoint" />
            <Array as="points">
              <mxPoint x="2270" y="503" />
              <mxPoint x="2270" y="269" />
            </Array>
          </mxGeometry>
        </mxCell>
        <mxCell id="3nAX13kZ5HZf5Nh2WH-0-13" style="edgeStyle=orthogonalEdgeStyle;rounded=0;jumpStyle=arc;orthogonalLoop=1;jettySize=auto;html=1;exitX=1;exitY=0.25;exitDx=0;exitDy=0;entryX=0.575;entryY=1.006;entryDx=0;entryDy=0;entryPerimeter=0;" parent="1" source="cg_5Q10Y65cVJ8_udtfW-70" target="3nAX13kZ5HZf5Nh2WH-0-4" edge="1">
          <mxGeometry relative="1" as="geometry">
            <mxPoint x="2140" y="240" as="targetPoint" />
            <Array as="points">
              <mxPoint x="2240" y="267" />
              <mxPoint x="2240" y="250" />
            </Array>
          </mxGeometry>
        </mxCell>
        <mxCell id="3nAX13kZ5HZf5Nh2WH-0-14" value="5" style="text;html=1;strokeColor=none;fillColor=none;align=center;verticalAlign=middle;whiteSpace=wrap;rounded=0;sketch=0;" parent="1" vertex="1">
          <mxGeometry x="2472" y="276.16666666666663" width="20" height="23.33333333333333" as="geometry" />
        </mxCell>
      </root>
    </mxGraphModel>
  </diagram>
</mxfile>
